<?xml version="1.0" ?><svg id="Layer_1" style="enable-background:new 0 0 24 24;" version="1.1" viewBox="0 0 24 24" xml:space="preserve" xmlns="http://www.w3.org/2000/svg" xmlns:xlink="http://www.w3.org/1999/xlink"><style type="text/css">
	.st0{fill:#1E232D;}
</style><g><g><path class="st0" d="M13.5,9c-1.4,0-2.5,1.1-2.5,2.5V17h2v-5.5c0-0.3,0.2-0.5,0.5-0.5c0.3,0,0.5,0.2,0.5,0.5V24h2V11.5    C16,10.1,14.9,9,13.5,9z M21,4c0-2.2-1.8-4-4-4s-4,1.8-4,4c0,2.2,1.8,4,4,4S21,6.2,21,4z M17,6c-1.1,0-2-0.9-2-2c0-1.1,0.9-2,2-2    s2,0.9,2,2C19,5.1,18.1,6,17,6z M20.5,9c-1.4,0-2.5,1.1-2.5,2.5V24h2V11.5c0-0.3,0.2-0.5,0.5-0.5c0.3,0,0.5,0.2,0.5,0.5V17h2v-5.5    C23,10.1,21.9,9,20.5,9z M5,16.6l-2.3-2.3l-1.4,1.4L5,19.4l3.7-3.7l-1.4-1.4L5,16.6z M1.3,10.3l1.4,1.4L5,9.4l2.3,2.3l1.4-1.4    L5,6.6L1.3,10.3z"/></g></g></svg>