<svg height="512pt" viewBox="0 0 512 512" width="512pt" xmlns="http://www.w3.org/2000/svg"><path d="m437 152h-81.464844l-20.726562 17.410156c-5.460938-19.019531-17.621094-35.226562-33.769532-45.882812 15.25-12.851563 24.960938-32.074219 24.960938-53.527344 0-38.597656-31.402344-70-70-70s-70 31.402344-70 70c0 21.453125 9.710938 40.675781 24.960938 53.527344-22.246094 14.679687-36.960938 39.882812-36.960938 68.472656v112.488281l-68.464844 57.511719h-30.535156c-41.355469 0-75 33.644531-75 75s33.644531 75 75 75h81.464844l250-210h30.535156c41.355469 0 75-33.644531 75-75s-33.644531-75-75-75zm-221-82c0-22.054688 17.945312-40 40-40s40 17.945312 40 40-17.945312 40-40 40-40-17.945312-40-40zm-12 122c0-28.671875 23.328125-52 52-52 28.648438 0 51.960938 23.289062 51.996094 51.933594l-103.996094 87.355468zm233 80h-41.464844l-250 210h-70.535156c-24.8125 0-45-20.1875-45-45s20.1875-45 45-45h41.464844l250-210h70.535156c24.8125 0 45 20.1875 45 45s-20.1875 45-45 45zm0 0"/></svg>