<svg id="Layer_5" enable-background="new 0 0 64 64" height="512" viewBox="0 0 64 64" width="512" xmlns="http://www.w3.org/2000/svg"><path d="m17 47c-3.309 0-6 2.691-6 6s2.691 6 6 6 6-2.691 6-6-2.691-6-6-6zm3.858 5h-2.858v-2.858c1.399.363 2.495 1.459 2.858 2.858zm-4.858-2.858v2.858h-2.858c.363-1.399 1.459-2.495 2.858-2.858zm-2.858 4.858h2.858v2.858c-1.399-.363-2.495-1.459-2.858-2.858zm4.858 2.858v-2.858h2.858c-.363 1.399-1.459 2.495-2.858 2.858z"/><path d="m63 9v-1c0-3.86-3.141-7-7-7h-48c-3.859 0-7 3.14-7 7v1h3v26h-3v17c0 1.654 1.346 3 3 3h3.202c.929 4.559 4.97 8 9.798 8s8.869-3.441 9.798-8h24.227c-.634.838-1.025 1.87-1.025 3 0 2.757 2.243 5 5 5s5-2.243 5-5c0-1.13-.391-2.162-1.026-3h1.026c1.654 0 3-1.346 3-3v-17h-3v-26zm-55-6h48c2.415 0 4.435 1.721 4.899 4h-57.798c.464-2.279 2.484-4 4.899-4zm42 32v-12h-16v3.069c-1.161-1.038-2.508-1.836-3.966-2.358 1.791-1.269 2.966-3.353 2.966-5.711 0-3.86-3.141-7-7-7s-7 3.14-7 7c0 2.358 1.176 4.443 2.968 5.712-4.637 1.662-7.968 6.087-7.968 11.288h-2v-26h40v26zm-29-17c0-2.757 2.243-5 5-5s5 2.243 5 5-2.243 5-5 5-5-2.243-5-5zm7.651 7.372c-.502.976-1.507 1.628-2.651 1.628s-2.151-.654-2.653-1.631c.846-.234 1.733-.369 2.653-.369.907 0 1.795.136 2.651.372zm-7.168.718c.801 1.735 2.536 2.91 4.517 2.91 1.984 0 3.719-1.177 4.518-2.913 1.356.688 2.548 1.688 3.482 2.934v5.979h-18c0-3.888 2.235-7.256 5.483-8.91zm26.517 8.91h-12v-10h12zm-42-26h4v26h-4zm11 52c-4.411 0-8-3.589-8-8s3.589-8 8-8 8 3.589 8 8-3.589 8-8 8zm41-3c0 1.654-1.346 3-3 3s-3-1.346-3-3 1.346-3 3-3 3 1.346 3 3zm2-5h-33c0-5.514-4.486-10-10-10s-10 4.486-10 10h-3c-.552 0-1-.448-1-1v-11h58v11c0 .552-.448 1-1 1zm1-14h-58v-2h58zm-3-4h-4v-26h4z"/><path d="m38 27h8v2h-8z"/><path d="m38 31h8v2h-8z"/><path d="m57 43h2v2h-2z"/><path d="m57 47h2v2h-2z"/><path d="m29 49h2v2h-2z"/><path d="m33 49h2v2h-2z"/><path d="m37 49h2v2h-2z"/></svg>