<svg height="512pt" viewBox="-11 0 512 512" width="512pt" xmlns="http://www.w3.org/2000/svg"><path d="m254.839844 462c0 5.523438-4.476563 10-10 10-5.523438 0-10-4.476562-10-10s4.476562-10 10-10c5.523437 0 10 4.476562 10 10zm0 0"/><path d="m434.839844 47.539062v-37.539062c0-5.523438-4.476563-10-10-10h-360c-5.523438 0-10 4.476562-10 10v37.539062c-8.171875 15.308594-47.914063 84.40625-53.488282 93.957032-.882812 1.527344-1.351562 3.261718-1.351562 5.023437v.8125c0 23.996094 14.28125 46.042969 34.839844 55.21875v129.449219h-10c-5.523438 0-10 4.476562-10 10s4.476562 10 10 10h10v100h-10c-5.523438 0-10 4.476562-10 10v40c0 5.523438 4.476562 10 10 10h440c5.523437 0 10-4.476562 10-10v-40c0-5.523438-4.476563-10-10-10h-10v-100h10c5.523437 0 10-4.476562 10-10s-4.476563-10-10-10h-10v-129.359375c20.820312-8.835937 34.800781-29.480469 34.800781-52.640625v-3.480469c0-1.738281-.453125-3.445312-1.3125-4.953125-5.058594-8.800781-44.351563-76.921875-53.488281-94.027344zm-20 284.460938v-127.761719c3.878906 1.335938 7.898437 2.230469 12 2.644531 2.8125.277344 5.375.339844 8 .238282v124.878906zm-20-139.960938v139.960938h-21.71875c1.109375-3.128906 1.71875-6.492188 1.71875-10 0-7.679688-2.902344-14.6875-7.664063-20 4.761719-5.3125 7.664063-12.320312 7.664063-20 0-16.542969-13.457032-30-30-30h-60c-16.542969 0-30 13.457031-30 30 0 7.679688 2.902344 14.6875 7.664062 20-4.761718 5.3125-7.664062 12.320312-7.664062 20 0 3.507812.609375 6.871094 1.71875 10h-23.4375c1.109375-3.128906 1.71875-6.492188 1.71875-10 0-7.679688-2.902344-14.6875-7.664063-20 4.761719-5.3125 7.664063-12.320312 7.664063-20 0-16.542969-13.457032-30-30-30h-60c-16.542969 0-30 13.457031-30 30 0 7.679688 2.902344 14.6875 7.664062 20-4.761718 5.3125-7.664062 12.320312-7.664062 20 0 3.507812.609375 6.871094 1.71875 10h-21.71875v-139.386719c3.632812-3.261719 6.824218-6.949219 9.496094-10.972656 9.261718 13.871094 23.921874 23.554687 40.71875 25.238281 20.523437 2.054688 41.203124-7.132812 53.214843-25.222656 9.261719 13.859375 23.914063 23.542969 40.703125 25.222656 20.324219 2.042969 41.09375-6.957031 53.21875-25.226562 9.265625 13.863281 23.917969 23.542968 40.714844 25.226562 20.5625 2.058594 41.207031-7.152344 53.203125-25.210937 2.507813 3.773437 5.433594 7.257812 8.730469 10.371093zm-110 139.960938c-5.515625 0-10-4.484375-10-10s4.484375-10 10-10h60c5.515625 0 10 4.484375 10 10s-4.484375 10-10 10zm-10-50c0-5.515625 4.484375-10 10-10h60c5.515625 0 10 4.484375 10 10s-4.484375 10-10 10h-60c-5.515625 0-10-4.484375-10-10zm-130 50c-5.515625 0-10-4.484375-10-10s4.484375-10 10-10h60c5.515625 0 10 4.484375 10 10s-4.484375 10-10 10zm-10-50c0-5.515625 4.484375-10 10-10h60c5.515625 0 10 4.484375 10 10s-4.484375 10-10 10h-60c-5.515625 0-10-4.484375-10-10zm-80 50v-124.882812c6.84375.242187 13.605468-.730469 20-2.855469v127.738281zm15.996094-272h47.460937l-21.1875 74h-68.351563c15.15625-26.34375 34.167969-59.535156 42.078126-74zm279.714843 0 21.175781 74h-71.09375l-7.054687-74zm24.9375 94c-2.128906 19.550781-19.507812 35.078125-40.59375 32.980469-16.5-1.65625-29.816406-15.597657-32.578125-32.980469zm-102-94 7.050781 74h-71.4375l7.058594-74zm8.074219 94c-2.132812 19.5625-19.519531 35.085938-40.59375 32.980469-16.496094-1.65625-29.808594-15.597657-32.574219-32.980469zm-92.554688-20h-71.09375l21.183594-74h56.972656zm-1.367187 20c-2.132813 19.589844-19.558594 35.085938-40.59375 32.980469-16.5-1.65625-29.816406-15.597657-32.582031-32.980469zm204.890625-20-21.179688-74h47.496094c8.523438 15.589844 29.804688 52.714844 42.042969 74zm22.308594-114v20h-340v-20zm-394.304688 133.898438h73.164063c-2.167969 19.765624-19.75 35.171874-40.578125 33.082031-17.03125-1.699219-29.878906-16.320313-32.585938-33.082031zm269.304688 298.101562c-5.523438 0-10 4.476562-10 10s4.476562 10 10 10h165v20h-420v-20h165c5.523437 0 10-4.476562 10-10s-4.476563-10-10-10h-145v-100h380v100zm138.988281-265.019531c-16.945313-1.703125-29.863281-16.105469-32.574219-32.992188h73.164063c-2.171875 20.136719-20.058594 35.03125-40.589844 32.992188zm0 0"/><path d="m304.839844 372h-120c-16.542969 0-30 13.457031-30 30s13.457031 30 30 30h120c16.542968 0 30-13.457031 30-30s-13.457032-30-30-30zm0 40h-120c-5.515625 0-10-4.484375-10-10s4.484375-10 10-10h120c5.515625 0 10 4.484375 10 10s-4.484375 10-10 10zm0 0"/></svg>