<?xml version="1.0" encoding="iso-8859-1"?>
<!-- Generator: Adobe Illustrator 19.0.0, SVG Export Plug-In . SVG Version: 6.00 Build 0)  -->
<svg version="1.1" id="Layer_1" xmlns="http://www.w3.org/2000/svg" xmlns:xlink="http://www.w3.org/1999/xlink" x="0px" y="0px"
	 viewBox="0 0 512 512" style="enable-background:new 0 0 512 512;" xml:space="preserve">
<g>
	<g>
		<path d="M436,120H76c-24.813,0-45,20.187-45,45v302c0,24.813,20.187,45,45,45h360c24.813,0,45-20.187,45-45V165
			C481,140.187,460.813,120,436,120z M451,467c0,8.271-6.729,15-15,15H76c-8.271,0-15-6.729-15-15V165c0-8.271,6.729-15,15-15h360
			c8.271,0,15,6.729,15,15V467z"/>
	</g>
</g>
<g>
	<g>
		<path d="M207.819,241.586C209.864,236.45,211,230.857,211,225c0-24.813-20.187-45-45-45s-45,20.187-45,45
			c0,5.856,1.137,11.449,3.181,16.586C105.085,246.791,91,264.277,91,285v45c0,19.556,12.539,36.239,30,42.43V437
			c0,8.284,6.716,15,15,15h60c8.284,0,15-6.716,15-15v-64.57c17.461-6.191,30-22.874,30-42.43v-45
			C241,264.277,226.915,246.791,207.819,241.586z M166,210c8.271,0,15,6.729,15,15s-6.729,15-15,15s-15-6.729-15-15
			S157.729,210,166,210z M211,330c0,8.271-6.729,15-15,15c-8.284,0-15,6.716-15,15v62h-30v-62c0-8.284-6.716-15-15-15
			c-8.271,0-15-6.729-15-15v-45c0-8.271,6.729-15,15-15h60c8.271,0,15,6.729,15,15V330z"/>
	</g>
</g>
<g>
	<g>
		<path d="M236.606,64.394l-60-60c-5.857-5.858-15.355-5.858-21.213,0l-60,60C85.986,73.801,92.646,90,106,90h120
			C239.304,90,246.05,73.837,236.606,64.394z M142.214,60L166,36.214L189.787,60H142.214z"/>
	</g>
</g>
<g>
	<g>
		<path d="M406,0H286c-13.304,0-20.05,16.163-10.606,25.606l60,60c5.857,5.859,15.355,5.859,21.213,0.001l60-60
			C426.014,16.199,419.355,0,406,0z M346,53.787L322.214,30h47.573L346,53.787z"/>
	</g>
</g>
<g>
	<g>
		<path d="M387.819,241.586C389.864,236.45,391,230.857,391,225c0-24.813-20.187-45-45-45s-45,20.187-45,45
			c0,5.856,1.137,11.449,3.181,16.586C285.085,246.791,271,264.277,271,285v45c0,19.556,12.539,36.239,30,42.43V437
			c0,8.284,6.716,15,15,15h60c8.284,0,15-6.716,15-15v-64.57c17.461-6.191,30-22.874,30-42.43v-45
			C421,264.277,406.915,246.791,387.819,241.586z M346,210c8.271,0,15,6.729,15,15s-6.729,15-15,15s-15-6.729-15-15
			S337.729,210,346,210z M391,330c0,8.271-6.729,15-15,15c-8.284,0-15,6.716-15,15v62h-30v-62c0-8.284-6.716-15-15-15
			c-8.271,0-15-6.729-15-15v-45c0-8.271,6.729-15,15-15h60c8.271,0,15,6.729,15,15V330z"/>
	</g>
</g>
<g>
</g>
<g>
</g>
<g>
</g>
<g>
</g>
<g>
</g>
<g>
</g>
<g>
</g>
<g>
</g>
<g>
</g>
<g>
</g>
<g>
</g>
<g>
</g>
<g>
</g>
<g>
</g>
<g>
</g>
</svg>
