<svg id="Layer_1" enable-background="new 0 0 512 512" height="512" viewBox="0 0 512 512" width="512" xmlns="http://www.w3.org/2000/svg"><g><path d="m497 224.933h-128.533c-8.284 0-15 6.716-15 15v49.267h-97.467c-8.284 0-15 6.716-15 15v49.267h-34.267v-49.267c0-5.015-2.507-9.699-6.68-12.481l-41.521-27.68v-56.452c11.006 15.274 24.78 28.694 40.938 39.468 2.038 1.359 11.212 5.849 18.932-1.871 7.283-7.283 4.937-18.444-2.502-23.231-16.017-10.725-57.367-43.64-57.367-110.553 0-8.593-2.287-16.831-6.562-24.02 13.559-8.286 22.629-23.227 22.629-40.247 0-25.989-21.144-47.133-47.133-47.133s-47.134 21.144-47.134 47.133c0 7.534 1.786 14.655 4.943 20.978l-24.079 24.079c-35.968 35.967-61.197 87.94-61.197 147.743 0 8.284 6.716 15 15 15s15-6.716 15-15c0-38.397 12.021-74.941 34.267-105.354v213.666l-41.693 69.488h-7.574c-8.284 0-15 6.716-15 15v64.267c0 8.284 6.716 15 15 15s15-6.716 15-15v-49.267h.978c.025 0 .049.002.074.002.026 0 .051-.002.077-.002h112.405c8.284 0 15-6.716 15-15v-49.267h97.466c8.284 0 15-6.716 15-15v-49.266h97.467c8.284 0 15-6.716 15-15v-49.267h113.533c8.284 0 15-6.716 15-15s-6.716-15-15-15zm-369.533-194.933c9.447 0 17.133 7.686 17.133 17.133s-7.686 17.133-17.133 17.133-17.134-7.686-17.134-17.133 7.687-17.133 17.134-17.133zm-33.2 81.384c0-9.438 7.679-17.117 17.134-17.117 9.358 0 17.133 7.567 17.133 17.133v145.667h-34.267zm82.466 242.083h-33.2c-8.284 0-15 6.716-15 15v49.267h-70.974l34.57-57.616c1.398-2.331 2.138-4.999 2.138-7.717v-65.333h44.725l37.742 25.161v41.238z"/><path d="m375.906 117.021 97.485-55.707-6.717 25.531c-2.108 8.012 2.678 16.215 10.688 18.323 8.436 2.217 16.329-3.106 18.323-10.689l15.817-60.113c2.108-8.011-2.677-16.214-10.688-18.323l-59.052-15.544c-8.019-2.112-16.216 2.676-18.324 10.688s2.676 16.215 10.688 18.324l23.589 6.209-96.693 55.254c-7.192 4.11-9.691 13.273-5.581 20.466 4.109 7.194 13.273 9.691 20.465 5.581z"/></g></svg>