<svg height="512" viewBox="0 0 53 58" width="512" xmlns="http://www.w3.org/2000/svg"><g id="005---Public-Toilet"><path id="Shape" d="m41.5 55c-.8284271 0-1.5-.6715729-1.5-1.5v-17.5h3v17.5c0 .8284271-.6715729 1.5-1.5 1.5zm6.5-1.5c0 .8284271-.6715729 1.4999999-1.5 1.4999999s-1.5-.6715728-1.5-1.4999999v-17.5h3zm5-23c0 .8284271-.6715729 1.5-1.5 1.5s-1.5-.6715729-1.5-1.5v-12.5c0-.5522847-.4477153-1-1-1s-1 .4477153-1 1v16h-8v-16c0-.5522847-.4477153-1-1-1s-1 .4477153-1 1v12.5c0 .8284271-.6715729 1.5-1.5 1.5s-1.5-.6715729-1.5-1.5v-12.5c0-2.209139 1.790861-4 4-4h10c2.209139 0 4 1.790861 4 4z"/><path id="Shape" d="m9.5 55c-.39855961.0024131-.78149417-.1548471-1.06332354-.4366765-.28182937-.2818293-.4390896-.6647639-.43667646-1.0633235l-.00002737-13.5h3.00002737v13.5c0 .8284271-.6715729 1.5-1.5 1.5zm6.5-1.5c0 .8284271-.6715729 1.5-1.5 1.5s-1.5-.6715729-1.5-1.5v-13.5h3zm6.449-22.259c-.7962111.2254381-1.6253524-.2328655-1.858-1.027l-3.591-12.5c-.1570269-.5242242-.7062575-.8248648-1.2324701-.6746356-.5262125.1502292-.8339362.6955228-.6905299 1.2236356l5.593 19.737h-17.348l5.6-19.74c.12335504-.5206998-.18505589-1.0462321-.69980056-1.1924603s-1.05338338.138675-1.22219944.6464603l-3.589 12.494c-.22698904.7980515-1.05794854 1.260989-1.85599999 1.034-.79805146-.2269891-1.26098903-1.0579485-1.03400001-1.856l3.589-12.486c.50070292-1.7117729 2.06652222-2.8912213 3.85-2.9h9.59c.889183.0042076 1.6698235.5924338 1.919 1.446l4.01 13.938c.1100997.3828479.0633864.7937674-.1298376 1.1421334-.193224.3483661-.5170866.6055625-.9001624.7148666z"/><rect id="Rectangle-path" height="58" rx="1" width="4" x="27"/><circle id="Oval" cx="12" cy="7" r="4"/><circle id="Oval" cx="44" cy="7" r="4"/></g></svg>