
<svg xmlns="http://www.w3.org/2000/svg" version="1.1" xmlns:xlink="http://www.w3.org/1999/xlink" preserveAspectRatio="none" x="0px" y="0px" width="1080px" height="1920px" viewBox="0 0 1080 1920">
<defs>
<filter id="Filter_1" x="-20%" y="-20%" width="140%" height="140%" color-interpolation-filters="sRGB">
<feFlood flood-color="#333333" flood-opacity="1" in="SourceGraphic" result="result1"/>

<feComposite in2="SourceGraphic" in="result1" operator="in" result="result2"/>

<feGaussianBlur in="result2" stdDeviation="1.3333333333333333,1.3333333333333333" result="result3"/>

<feOffset dx="2.8284271247461903" dy="2.8284271247461903" in="result3" result="result4"/>

<feComposite in2="result4" in="SourceGraphic" operator="over" result="result5"/>
</filter>

<filter id="Filter_2" x="-20%" y="-20%" width="140%" height="140%" color-interpolation-filters="sRGB">
<feColorMatrix in="SourceGraphic" type="matrix" values="1 0 0 0 0 0 1 0 0 0 0 0 1 0 0 0 0 0 0.5 0" result="result1"/>
</filter>

<filter id="Filter_3" x="-20%" y="-20%" width="140%" height="140%" color-interpolation-filters="sRGB">
<feFlood flood-color="#333333" flood-opacity="1" in="SourceGraphic" result="result1"/>

<feComposite in2="SourceGraphic" in="result1" operator="in" result="result2"/>

<feGaussianBlur in="result2" stdDeviation="1.3333333333333333,1.3333333333333333" result="result3"/>

<feOffset dx="2.8284271247461903" dy="2.8284271247461903" in="result3" result="result4"/>

<feComposite in2="result4" in="SourceGraphic" operator="over" result="result5"/>
</filter>

<filter id="Filter_4" x="-20%" y="-20%" width="140%" height="140%" color-interpolation-filters="sRGB">
<feFlood flood-color="#333333" flood-opacity="1" in="SourceGraphic" result="result1"/>

<feComposite in2="SourceGraphic" in="result1" operator="in" result="result2"/>

<feGaussianBlur in="result2" stdDeviation="1.3333333333333333,1.3333333333333333" result="result3"/>

<feOffset dx="2.8284271247461903" dy="2.8284271247461903" in="result3" result="result4"/>

<feComposite in2="result4" in="SourceGraphic" operator="over" result="result5"/>
</filter>

<filter id="Filter_5" x="-20%" y="-20%" width="140%" height="140%" color-interpolation-filters="sRGB">
<feFlood flood-color="#333333" flood-opacity="1" in="SourceGraphic" result="result1"/>

<feComposite in2="SourceGraphic" in="result1" operator="in" result="result2"/>

<feGaussianBlur in="result2" stdDeviation="1.3333333333333333,1.3333333333333333" result="result3"/>

<feOffset dx="2.8284271247461903" dy="2.8284271247461903" in="result3" result="result4"/>

<feComposite in2="result4" in="SourceGraphic" operator="over" result="result5"/>
</filter>

<g id="level0_0_Layer3_0_FILL">
<path fill="#9BE2FB" stroke="none" d="
M 314.5 16
L 314.1 19.25 314.5 19.25 314.5 16 Z"/>

<path fill="#333333" stroke="none" d="
M 365.25 122.5
L 366.2 17.2 314.5 16 314.5 19.25 314.4 39.1 314.1 19.25 314.5 16 235.95 17.55 232.9 23.4
Q 237.9849609375 36.698828125 243.05 50 250.408984375 69.1853515625 257.75 88.35
L 261.9 99.15 266.2 109.95 283.25 122.5 365.25 122.5
M -129.35 141.3
L -131.5 141.3 -131.5 142.5 -124.75 142.5 -124.75 141.3 -129.35 141.3
M -127.5 138.95
L -129.05 138.95 -129.05 139.6 -129.05 140.25 -129.05 140.5 -127.5 140.5 -127.5 138.95
M -132.2 139.75
L -132.2 140.25 -130.35 140.25 -130.35 139.75 -132.2 139.75
M -136.05 141.3
L -136.05 141.3 -136.05 152.6 -124.75 152.6 -124.75 142.5 -131.5 142.5 -131.5 141.3 -133.75 141.3 -136.05 141.3
M -105.1 115.25
L -105.25 114.75 -118.1 119.55 -119.25 116.5
Q -123.643359375 117.4580078125 -127.55 119 -129.087890625 119.626953125 -130.6 120.35
L -134.75 121.75 -128.35 138.35 -129.35 138.35 -129.35 138.95 -129.05 138.95 -127.5 138.95 -127.5 140.5 -123.5 140.5 -123.5 141.3 -124.75 141.3 -124.75 142.5 -124.75 152.6 -136.05 152.6 -136.05 141.3 -136.05 141.3 -142.15 126.8 -142.25 125.1 -138 108.85 -137.8 108.2 -137.85 108.1 -140.95 99.4 -168.7 24.85 -172.7 22.55 -172.8 22.5 -194.45 23.25 -194.4 23.15 -200.2 23.3 -197.15 23.25 -218.7 24.25 -218.9 52.85
Q -219.3111328125 67.568359375 -220.2 82.1 -221.0228515625 96.6765625 -222.4 111.1
L -222.4 111.1 -248.95 110.15 -249.75 121.85 -248.9 103.7 -249.35 103.7
Q -250.0091796875 103.7431640625 -250.7 103.75 -251.4396484375 103.801953125 -252.2 103.85 -350.449609375 106.733984375 -450.45 96
L -449.95 155.75
Q -299.539453125 195.2265625 -258.65 163.85 -254.7193359375 160.865234375 -251.8 157.15
L -254.5 201.85 -175 201 -175 201.15 -254.5 202 -254.05 209.5 -148.5 208.25 -104.15 200.85 -104.5 200 -75.25 195.1 -96.1 140.35 -105.1 115.25
M -206.85 87.3
L -207.1 71 -206.75 74.2 -206.85 87.3
M -206.75 97.7
L -206.75 97.45 -192.85 97.65 -206.75 97.7
M -168.05 -62.2
L -168.4 -63.2 -179.25 -92.75 -211.75 -81.75 -203.6 -60.45 -203.6 -60.45 -219.65 -55.05 -213.8 -39.95 -213.55 -39.35 -212.85 -39.6 -210.7 -40.3 -197.5 -44.5 -197.5 -44.55 -197.35 -44.6 -196.2 -44.95
Q -196.028515625 -44.9919921875 -195.85 -45.05 -193.7138671875 -45.75078125 -191.6 -46.45
L -189.95 -47 -165.5 -55 -168.05 -62.15 -168.05 -62.2
M -368.5 35.3
L -368.5 56.2 -344.05 56.2 -344.05 35.3 -368.5 35.3
M -386.2 56.2
L -386.2 35.3 -435.1 35.3 -435.1 56.2 -386.2 56.2
M -300.5 35.3
L -300.5 56.2 -251.6 56.2 -251.6 35.3 -300.5 35.3
M -319.55 56.2
L -319.55 35.3 -344 35.3 -344 56.2 -319.55 56.2
M -1.55 16.7
L -1.55 15.55 -130.3 20.2 -133.05 23.1 -111.8 79.55 -106.85 92.2 -104.5 99.5 -94.6 105.2 -92.95 106.15 -83.1 105.9 -69.15 106.25 -94.6 106.15 -94.6 110 -93.7 112
Q -92.1828125 116.017578125 -88.85 123.3
L -60 124.75 -67.45 168.05 -63.7 168.05 -63.05 177.65 -44 174.15 -41.95 184.55 -39.45 184.15 -14.65 180.25 10 176.15 6.3 166.6 11.05 164.3
Q 12.1798828125 168.2404296875 13.6 172.2
L 14.9 175.5 29.05 173.2 71.25 166 174.25 135.75 174 131.25 153.75 130.75 153.75 127 176.7 126.85 184.35 126.75
Q 184.3552734375 126.8259765625 184.35 126.9
L 246.4 126.75 246.75 119.5 212.75 30.25 185 12.35 145.25 12.65
Q 140.7 12.55 136.15 12.45 117.75 12.15 99.5 12.1 90.3 12.1 81.1 12.2 76.5 12.25 71.9 12.35 67.35 12.4 62.8 12.55 58.2 12.65 53.6 12.8 49 12.95 44.4 13.15 35.25 13.55 26.1 13.95 21.5 14.2 16.9 14.45 12.3 14.7 7.7 15 3.1 15.25 -1.5 15.55
L -1.5 16.7 -1.5 35.25 -1.55 35.25 -1.55 16.7
M -45.35 37.05
L -54.8 37.6 -54.9 43.2
Q -54.9 40.9501953125 -54.9 37.6 -54.9 37.45 -50.05 37.2 -47.7134765625 37.1005859375 -45.35 37.05
M 185.25 64.55
L 185.35 74.5
Q 186.1349609375 98.706640625 184.6 122.65
L 185.25 64.55
M -319.55 -19.95
L -344 -19.95 -344 0.95 -319.55 0.95 -319.55 -19.95
M -251.6 -19.95
L -300.5 -19.95 -300.5 0.95 -251.6 0.95 -251.6 -19.95
M -386.2 -19.95
L -435.1 -19.95 -435.1 0.95 -386.2 0.95 -386.2 -19.95
M -344.05 -19.95
L -368.5 -19.95 -368.5 0.95 -344.05 0.95 -344.05 -19.95
M 110 -118.25
L 92.85 -159.65 -33.25 -122 -31 -116 -40.55 -113.3 -38.15 -107.8 -45.5 -105.1 -43.85 -101.6 -165.2 -60.6 -165.25 -60.6 -165.3 -60.55 -154.75 -31.25 -151.7 -22.8 -146.95 -19.9 -143.25 -19.95
Q -141.8220703125 -19.9697265625 -140.45 -20
L -132 -20.2 -124.1 -20.1
Q -122.790625 -20.0802734375 -121.5 -20.1 -116.2126953125 -20.0607421875 -110.95 -20.05
L -29.75 -19.9 -21.9 -20.2 -15.8 -28.9 -15.95 -29.3
Q -17.4802734375 -35.883203125 -19.75 -42.1
L -17.25 -43.1 -10.05 -45.95 -16.35 -62.7 -1.7 -67.3 10.25 -35.5 21.65 -39.5 28.7 -20.2 58.95 -20.5 97.35 -19.9 115.7 -20.2 136.4 -19.9 157.95 -20.1 169.75 -20.25 182.4 -20.5 171.45 -52.55 169 -52.5 169 -58 138.25 -58.45 138.25 -57.95 136 -58.5
Q 135.69765625 -59.0361328125 135.4 -59.6
L 134.8 -60.65 135.25 -60.65 129.25 -77.5 125.5 -75 110 -118.25
M 10 -71.55
L 10 -71.55 10.4 -70.5 10 -71.55
M 138.45 -40.55
L 135.75 -40.5 135.75 -40.8 138.45 -40.55
M -23.6 -51.3
L -23.5 -51.05
Q -23.54765625 -51.140234375 -23.6 -51.25
L -24.4 -52.25 -23.6 -51.3
M -57.5 -52.7
L -56.35 -53.05 -57.5 -52.65 -57.5 -52.7
M -60.15 -58.1
L -62.35 -62.6 -58.95 -63.75 -61.75 -62.25 -60.15 -58.1 Z"/>

<path fill="#CCCCCC" stroke="none" d="
M -55.7 191.95
L -48.6 201.85 57.1 184.2 62.75 201.7 67.2 200.25 62.9 185.3 191.65 151.65 192.7 153.75
Q 205.8736328125 151.2744140625 212 159.3 212.2564453125 159.6458984375 212.5 160 214.888671875 163.452734375 216.1 168.65
L 225.3 166.5
Q 237.8462890625 163.9734375 248 176.4 249.7923828125 178.2947265625 251 180 251.910546875 181.2509765625 252.5 182.4 255.7912109375 188.75390625 249.75 192 248.0310546875 192.9267578125 245.55 193.6
L 237.1 196.4 245.55 222.7 261.25 222
Q 256.025 214.95 258.1 207.9 259.3826171875 200.325390625 263.1 195.2 264.3892578125 193.4587890625 265.95 192 268.655859375 189.4392578125 272.25 187.75 289.1357421875 184.126171875 297.4 192 298.8921875 193.4142578125 300.1 195.2 300.8791015625 196.3705078125 301.55 197.7
L 311.25 221.75 325.25 222.25 308.75 179
Q 309.8501953125 164.7130859375 320.5 164.75
L 365.75 161.75 366 131.25 365.25 122.5 283.25 122.5 266.2 109.95 269.75 120.1 273.5 130.25 268 132.75 276.5 153.5 261.25 158.5 252.75 137 179.5 136.5 179.5 139.25
Q 136.4421875 153.759765625 90.3 165.15
L 73.75 170 59.25 172.45
Q 58.2384765625 172.6728515625 57.2 172.9
L -55.7 191.95 Z"/>

<path fill="#000000" stroke="none" d="
M -129.35 140.25
L -129.35 140.5 -129.05 140.5 -129.05 140.25 -129.35 140.25
M -129.35 138.95
L -130.35 138.95 -130.35 139.45 -130.35 139.75 -130.35 140.25 -129.35 140.25 -129.05 140.25 -129.05 139.6 -130.05 139.6 -129.05 139.6 -129.05 138.95 -129.35 138.95
M -124.75 141.3
L -123.5 141.3 -123.5 140.5 -127.5 140.5 -129.05 140.5 -129.35 140.5 -129.35 141.3 -124.75 141.3 Z"/>

<path fill="#BC2231" stroke="none" d="
M -133.75 140.5
L -133.75 141.3 -131.5 141.3 -129.35 141.3 -129.35 140.5 -133.75 140.5 Z"/>

<path fill="#C5F0FC" stroke="none" d="
M -212.85 -39.55
L -210.7 -40.3 -212.85 -39.6 -212.85 -39.55 Z"/>

<path fill="#666666" stroke="none" d="
M 319.7 -55.65
L 319.7 -55.6 319.7 -55.55 319.7 -46.75 319.75 -46.75 365.75 -51.25 369 -61 365.25 -61 365.25 -53.75 353.75 -53.75 353.75 -59.5 319.7 -55.65
M 218.15 -55.75
Q 218.755078125 -58.59140625 220.5 -61
L 216.1 -72.5 215.05 -72.15
Q 213.3615234375 -70.89921875 212 -69.55 209.3787109375 -66.8626953125 208.05 -63.65 205.0546875 -56.06640625 209.2 -45.35 210.3388671875 -42.4462890625 212 -39.3 213.36953125 -36.7025390625 215.1 -33.95 217.44375 -30.226953125 220.45 -26.2 221.2513671875 -25.14140625 222.1 -24.05 225.12578125 -20.156640625 228.75 -16
L 228.75 -16.65 228.75 -39.25
Q 226.531640625 -40.058203125 224.75 -41.05 223.2748046875 -41.823828125 222.1 -42.75 221.6421875 -43.079296875 221.2 -43.45 219.9271484375 -44.6201171875 219.05 -45.95 218.86328125 -46.2951171875 218.65 -46.65 216.59453125 -50.5392578125 218.15 -55.75
M 229.75 -77.2
L 229.75 -77.2
Q 227.9095703125 -77.3716796875 226.2 -76
L 230 -65.5
Q 235.494921875 -65.5 238.9 -63 240.267578125 -61.9876953125 241.3 -60.6
L 241.55 -60.2
Q 241.7958984375 -59.841015625 242 -59.5
L 261.75 -62 261.75 -67.75 271.25 -67.75 271.25 -62.25 307.5 -67 307.5 -73 317.75 -73 317.75 -68.25 351.7 -71.95 352.8 -72.1 351.5 -81 232.75 -68 229.75 -77.2
M 332.05 -42.65
L 332.8 -37 365.05 -40.55 365.8 -46.6 332.05 -42.65
M 356.1 -28.75
Q 356.1 -31.5 354.15 -33.45 352.2 -35.4 349.45 -35.4 346.7 -35.4 344.75 -33.45 342.8 -31.5 342.8 -28.75 342.8 -26 344.75 -24.05 346.7 -22.1 349.45 -22.1 352.2 -22.1 354.15 -24.05 356.1 -26 356.1 -28.75
M 320.15 -30
L 320.9 -22.25 329.2 -23 328.45 -30.95 320.15 -30
M 319.2 -18.3
L 318.85 -11.7 355.05 -12.25 355.05 -12.6 355.25 -18.75 355.25 -18.85 319.2 -18.3
M 255.8 -30
Q 255.073828125 -28.034765625 254.95 -25.5 254.8595703125 -23.82265625 255.05 -21.9 256.1296875 -14.13125 260.4 -11.7
L 261.7 -11.15
Q 262.394921875 -10.885546875 263.15 -10.75
L 305.45 -10.95
Q 305.7572265625 -11.2921875 306 -11.65 307.8287109375 -13.940625 307.15 -15.65 306.7408203125 -16.722265625 305.25 -17.55
L 267.7 -17.35
Q 267.0775390625 -17.22265625 266.5 -17.2
L 266.25 -17.2
Q 265.84921875 -17.2095703125 265.45 -17.3 263.9298828125 -17.8466796875 262.95 -18.8 261.8515625 -20.0669921875 261.3 -22.45 261.2185546875 -23.02109375 261.2 -23.55 261.0791015625 -27.9712890625 265.6 -29.45
L 303.55 -33.8
Q 304.17421875 -34.3638671875 304.6 -34.9 307.275390625 -38.14609375 302.6 -40
L 260.55 -35.3 260.55 -35.3
Q 257.1740234375 -33.5599609375 255.8 -30
M 263 -49
L 243.5 -46.5 239.75 -38.75 243 -37.25 305.05 -44.4 309.75 -45 308.95 -54.45 274 -50.5 274 -43.5 263 -43.5 263 -49
M 234.3 -55.45
L 226 -54.5 226.75 -46.75 235.05 -47.5 234.3 -55.45 Z"/>

<path fill="#999999" stroke="none" d="
M 231.2 -78.2
Q 230.7990234375 -78.065625 230.4 -77.95
L 229.6 -77.65 229.75 -77.2 229.75 -77.2 232.75 -68 351.5 -81 329.8 -111.75 255.1 -86.1
Q 243.1443359375 -82.133203125 231.2 -78.2
M 21.65 -39.5
L 10.25 -35.5 -1.7 -67.3 -16.35 -62.7 -10.05 -45.95 -17.25 -43.1 -19.6 -42.1 -15.55 -29.9 -15.95 -29.3 -15.8 -28.9 -21.9 -20.2 -29.75 -19.9 -110.95 -20.05
Q -116.2126953125 -20.0607421875 -121.5 -20.1 -122.790625 -20.0802734375 -124.1 -20.1
L -140.45 -20
Q -141.8220703125 -19.9697265625 -143.25 -19.95
L -146.95 -19.9 -151.7 -22.8 -154.75 -31.25 -165.3 -60.55 -165.85 -63.9 -168.4 -63.2 -168.4 -63.2 -168.05 -62.2 -168.05 -62.15 -165.5 -55 -189.95 -47 -197.25 -44.5 -197.35 -44.6 -197.5 -44.55 -197.5 -44.5 -210.7 -40.3 -212.85 -39.55 -212.85 -39.6 -213.55 -39.35 -213.8 -39.95 -222.4 -36.45
Q -234.2408203125 -69.2109375 -281.05 -70.2
L -443.95 -70.75 -450.45 96
Q -350.449609375 106.733984375 -252.2 103.85 -251.4396484375 103.801953125 -250.7 103.75 -250.0091796875 103.7431640625 -249.35 103.7
L -248.9 103.7 -248.95 110.15 -222.4 111.1 -220.2 82.1
Q -219.3111328125 67.568359375 -218.9 52.85
L -218.7 24.25 -197.15 23.25 -200.2 23.3 -194.4 23.15 -194.45 23.25 -172.8 22.5 -172.7 22.55 -172.15 22.55 -168.7 24.85 -140.95 99.4 -137.75 107.75 -137.85 108.1 -137.8 108.2 -138 108.85 -142.15 126.8 -136.05 141.3 -133.75 141.3 -133.75 140.5 -129.35 140.5 -129.35 140.25 -130.35 140.25 -132.2 140.25 -132.2 139.75 -130.35 139.75 -130.35 139.45 -130.35 138.95 -129.35 138.95 -129.35 138.35 -128.35 138.35 -134.75 121.75 -130.6 120.35
Q -129.087890625 119.626953125 -127.55 119 -123.643359375 117.4580078125 -119.25 116.5
L -118.1 119.55 -105.25 114.75 -105.1 115.25 -105 115.25 -75.2 195.15 59.25 172.45 73.75 170 90.3 165.15 179.5 139.25 179.5 136.5 252.75 137 261.25 158.5 276.5 153.5 268 132.75 273.5 130.25 269.75 120.1 261.9 99.15 257.75 88.35
Q 250.408984375 69.1853515625 243.05 50 237.9849609375 36.698828125 232.9 23.4
L 235.95 17.55 314.5 16 366.2 17.2 365.35 2.25 367.3 -12.75 367.4 -12.75 369.05 -60.9 365.8 -51.15 319.75 -46.65 319.75 -46.75 319.7 -46.75 319.7 -55.55 317.05 -55.3 319.7 -55.6 319.7 -55.65 353.75 -59.5 353.75 -53.75 365.25 -53.75 365.25 -61 369 -61 365.75 -73.5 351.5 -81 352.8 -72.1 352.8 -72.05 351.7 -71.95 317.75 -68.25 317.75 -73 307.5 -73 307.5 -67 271.25 -62.25 271.25 -67.75 261.75 -67.75 261.75 -62 242 -59.5
Q 241.7958984375 -59.841015625 241.55 -60.2
L 241.3 -60.6
Q 240.267578125 -61.9876953125 238.9 -63 235.494921875 -65.5 230 -65.5
L 226.2 -76 226 -76.5 216 -72.75 216.1 -72.5 220.5 -61
Q 218.755078125 -58.59140625 218.15 -55.75 217.2642578125 -51.3662109375 219.05 -45.95 219.9271484375 -44.6201171875 221.2 -43.45 221.6421875 -43.079296875 222.1 -42.75 223.2748046875 -41.823828125 224.75 -41.05 226.531640625 -40.058203125 228.75 -39.25
L 228.75 -16.65 249.9 -4.65
Q 234.159375 -12.271875 212 -16.5 210.5138671875 -16.7830078125 209 -17.05
L 199.9 -18.45
Q 187.267578125 -19.9888671875 173 -20.25 171.3853515625 -20.2412109375 169.75 -20.25
L 157.95 -20.1
Q 155.9703125 -20.0259765625 154 -20 91.7630859375 -19.089453125 28.7 -20.2
L 21.65 -39.5
M 226 -54.5
L 234.3 -55.45 235.05 -47.5 226.75 -46.75 226 -54.5
M 308.95 -54.45
L 309 -54.45 309.8 -44.9 305.05 -44.4 243 -37.25 239.75 -38.75 243.5 -46.5 263 -49 263 -43.5 274 -43.5 274 -50.5 308.95 -54.45
M 260.55 -35.3
L 260.3 -36.05 260.55 -35.3 302.6 -40
Q 307.275390625 -38.14609375 304.6 -34.9 304.1990234375 -34.320703125 303.6 -33.7
L 265.65 -29.35
Q 261.35 -28.25 261.2 -23.55 261.2185546875 -23.02109375 261.3 -22.45 261.8515625 -20.0669921875 262.95 -18.8 263.9298828125 -17.8466796875 265.45 -17.3 265.84921875 -17.2095703125 266.25 -17.2
L 266.5 -17.2
Q 267.0775390625 -17.22265625 267.7 -17.35
L 305.25 -17.55
Q 306.7408203125 -16.722265625 307.15 -15.65 308.04609375 -13.870703125 306.2 -11.65
L 306 -11.65
Q 305.7572265625 -11.2921875 305.45 -10.95
L 263.15 -10.75
Q 262.394921875 -10.885546875 261.7 -11.15
L 260.4 -11.7
Q 256.0646484375 -13.992578125 254.8 -21.1 253.93359375 -26.1677734375 255.8 -30 257.1740234375 -33.5599609375 260.55 -35.3
M 318.85 -11.7
L 319.2 -18.3 355.25 -18.85 355.25 -18.75 355.3 -18.75 355.1 -12.6 355.05 -12.6 355.05 -12.25 318.85 -11.7
M 320.9 -22.25
L 320.15 -30 328.45 -30.95 329.2 -23 320.9 -22.25
M 354.15 -33.45
Q 356.1 -31.5 356.1 -28.75 356.1 -26 354.15 -24.05 352.2 -22.1 349.45 -22.1 346.7 -22.1 344.75 -24.05 342.8 -26 342.8 -28.75 342.8 -31.5 344.75 -33.45 346.7 -35.4 349.45 -35.4 352.2 -35.4 354.15 -33.45
M 332.8 -37
L 332.05 -42.65 365.8 -46.6 365.05 -40.55 332.8 -37
M -368.5 -19.95
L -344.05 -19.95 -344.05 0.95 -368.5 0.95 -368.5 -19.95
M -435.1 -19.95
L -386.2 -19.95 -386.2 0.95 -435.1 0.95 -435.1 -19.95
M -300.5 -19.95
L -251.6 -19.95 -251.6 0.95 -300.5 0.95 -300.5 -19.95
M -344 -19.95
L -319.55 -19.95 -319.55 0.95 -344 0.95 -344 -19.95
M -1.55 15.55
L -1.55 16.7 -1.5 16.7 -1.5 15.55
Q 3.1 15.25 7.7 15 12.3 14.7 16.9 14.45 21.5 14.2 26.1 13.95 35.25 13.55 44.4 13.15 49 12.95 53.6 12.8 58.2 12.65 62.8 12.55 67.35 12.4 71.9 12.35 76.5 12.25 81.1 12.2 90.3 12.1 99.5 12.1 117.75 12.15 136.15 12.45 140.7 12.55 145.25 12.65
L 185 12.35 212.75 30.25 246.75 119.5 246.4 126.75 184.35 126.9 176.7 126.85 153.75 127 153.75 130.75 174 131.25 174.25 135.75 71.25 166 29.05 173.2 15 175.75 14.9 175.5 13.6 172.2 10.8 164.95 6.3 166.6 10 176.15 -14.65 180.25 -39.25 184.6 -39.45 184.15 -41.95 184.55 -44 174.15 -63.05 177.65 -63.7 168.05 -67.45 168.05 -60 124.75 -88.85 123.3
Q -92.1828125 116.017578125 -93.7 112
L -94.6 110 -94.6 106.15 -94.6 105.2 -104.5 99.5 -111.8 79.55 -133.05 23.1 -130.3 20.2 -1.55 15.55
M -319.55 35.3
L -319.55 56.2 -344 56.2 -344 35.3 -319.55 35.3
M -300.5 56.2
L -300.5 35.3 -251.6 35.3 -251.6 56.2 -300.5 56.2
M -386.2 35.3
L -386.2 56.2 -435.1 56.2 -435.1 35.3 -386.2 35.3
M -368.5 56.2
L -368.5 35.3 -344.05 35.3 -344.05 56.2 -368.5 56.2
M 283.95 2
L 295.25 2.15 285.25 2.25 283.95 2 Z"/>
</g>

<g id="Symbol_8_0_Layer0_0_FILL">
<path fill="#CCCCCC" stroke="none" d="
M 217.55 -11
L 203.2 -49 167.3 -38 182.8 5.25 186.55 2.75 192.55 19.6 192.1 19.6 192.7 20.7
Q 193 21.2 193.3 21.75
L 195.55 22.35 195.55 21.8 226.3 22.25 226.3 27.75 228.75 27.7 239.7 59.75
Q 248.25 60.4 257.25 61.8
L 266.3 63.25
Q 267.8 63.45 269.3 63.75 291.45 68 307.2 75.6
L 286.05 63.6 286.05 64.25
Q 282.45 60.1 279.4 56.2 278.55 55.1 277.75 54.05 274.75 50 272.4 46.3 270.65 43.55 269.3 40.95 267.65 37.8 266.5 34.9 261.7 24.65 265.4 16.65 266.7 13.4 269.3 10.75 270.65 9.35 272.4 8.15
L 272.55 8.1
Q 272.9 7.8 273.3 7.5
L 287.7 2.35
Q 288.1 2.2 288.5 2.05 300.45 -1.9 312.4 -5.8
L 387.1 -31.5 369.45 -75.65 236.65 -32.9 241.35 -19.15 217.55 -11
M 26.3 -35.75
L 24.05 -41.75 -90.55 -3.8 -97.95 -7 -111.7 -44.25 -184.55 -29 -181.2 -20.2 -189.95 -8.3 -374.7 -8.3 -375.7 -8.9 -387.1 -8.9 -386.65 9.5 -228.1 9.85
Q -225.9 9.9 -223.75 10.05 -176.95 11.05 -165.1 43.8
L -156.45 40.35 -162.35 25.2 -146.3 19.85 -154.45 -1.5 -121.95 -12.5 -111.1 17.05 -111.05 17.05 -108.55 16.35 -108 19.7 -107.9 19.7 -107.85 19.65 13.45 -21.35 11.8 -24.85 19.15 -27.55 16.75 -33.05 26.3 -35.75 Z"/>
</g>

<g id="level0_0_Layer2_0_FILL">
<path fill="#C5F0FC" stroke="none" d="
M 215.05 -72.15
L 216.1 -72.5 216 -72.75
Q 215.527734375 -72.44140625 215.05 -72.15
M 226.2 -76
Q 227.082421875 -76.704296875 227.75 -77.1
L 226 -76.5 226.2 -76
M 229 -77.5
Q 229.49296875 -77.51796875 229.75 -77.2
L 229.6 -77.7 229 -77.5
M -197.5 -44.5
L -196.5 -44.85 -197.5 -44.55 -197.5 -44.5 Z"/>
</g>

<g id="d_11_0_Layer0_0_FILL">
<path fill="#BC2231" stroke="none" d="
M 36.25 -17
L 32.75 -27 -39.25 1.5 -31.75 27 39.25 -1 33.75 -16 36.25 -17 Z"/>
</g>

<g id="d_12_0_Layer0_0_FILL">
<path fill="#BC2231" stroke="none" d="
M -7 5.25
L -3 8.25 8 7.75 8.5 -8.25 -9 -1.3 -7 5.25 Z"/>
</g>

<g id="d_12b_0_Layer0_0_FILL">
<path fill="#BC2231" stroke="none" d="
M -6.8 -5.15
L -7.25 11 7.25 10.4 7.05 -10.9 -6.8 -5.15 Z"/>
</g>

<g id="d_14_0_Layer0_0_FILL">
<path fill="#BC2231" stroke="none" d="
M 7.25 13.35
L 7.25 -13.35 -7.2 -7.95 -7 13.35 7.25 13.35 Z"/>
</g>

<g id="d_15_0_Layer0_0_FILL">
<path fill="#BC2231" stroke="none" d="
M 51.45 -111.6
L 38.5 -106 37.5 -79.5 51.5 -79 51.45 -111.6 Z"/>
</g>

<g id="d_16_0_Layer0_0_FILL">
<path fill="#BC2231" stroke="none" d="
M 6.8 -9.25
L 3.05 -18.25 -6.75 -14.35 -6.7 18.25 6.55 18.25 6.8 -9.25 Z"/>
</g>

<g id="d_18_0_Layer0_0_FILL">
<path fill="#BC2231" stroke="none" d="
M 0 17.5
L 5.75 17.25 10.25 9.75 4.5 -9.5 -1.25 -17.5 -10.25 -14.5 0 17.5 Z"/>
</g>

<g id="d_19a_0_Layer0_0_FILL">
<path fill="#BC2231" stroke="none" d="
M 17.8 -18.2
L 17.75 -27.65 10.25 -27.65 -18 -16.65 -4.25 27.6 18 27.35 17.8 -18.2 Z"/>
</g>

<g id="d_20_21_0_Layer0_0_FILL">
<path fill="#BC2231" stroke="none" d="
M 150.3 -124.8
L 150.5 -79.25 178.75 -78.75 178.6 -114.1 178.5 -125.25 150.3 -124.8 Z"/>
</g>

<g id="d_22a_0_Layer0_0_FILL">
<path fill="#BC2231" stroke="none" d="
M -6.8 -17.7
L -6.65 17.65 6.85 17.4 6.6 -17.35 -6.8 -17.7 Z"/>
</g>

<g id="d_23a_0_Layer0_0_FILL">
<path fill="#BC2231" stroke="none" d="
M 209 -111.5
L 207 -111.25 206 -113.75 192 -113.75 192.25 -79 207.5 -78.75 207 -96.75 209 -96.5 209 -111.5 Z"/>
</g>

<g id="d_24_0_Layer0_0_FILL">
<path fill="#BC2231" stroke="none" d="
M -1.75 -9.4
L -2.25 -6.9 -5 -6.4 -5.25 3.35 -8.75 3.35 -8.75 10.1 8.5 10.35 8.45 -10.6 -1.75 -9.4 Z"/>
</g>

<g id="d_25a_0_Layer0_0_FILL">
<path fill="#BC2231" stroke="none" d="
M -0.5 -10
L -6.75 -10 -6.75 10 -1.75 9.75 -1.75 5.25 6.75 5.25 2.5 -8 -0.5 -10 Z"/>
</g>

<g id="d_26b_0_Layer0_0_FILL">
<path fill="#BC2231" stroke="none" d="
M -5 -2.65
L -5 -11.9 -19.25 -11.9 -19.25 9.1 -20.75 9.1 -20.75 11.85 21 12.35 15.85 -2.65 -5 -2.65 Z"/>
</g>

<g id="d_27_0_Layer0_0_FILL">
<path fill="#BC2231" stroke="none" d="
M -24.5 22.5
L -24.3 16.55 0.5 16.5 -3.25 2.75 -45 2.25 -45 22.25 -24.5 22.5 Z"/>
</g>

<g id="d_28_0_Layer0_0_FILL">
<path fill="#BC2231" stroke="none" d="
M 9.85 -10.1
L -15.15 -10.1 -15.15 10.4 13.6 10.4 15.1 4.9 9.85 -10.1 Z"/>
</g>

<g id="d_26a_0_Layer0_0_FILL">
<path fill="#BC2231" stroke="none" d="
M -2.15 -7.4
L -2.15 -2.9 -10.15 -2.9 -10.15 7.35 11 7.35 6.35 -7.4 -2.15 -7.4 Z"/>
</g>

<g id="d_29_0_Layer0_0_FILL">
<path fill="#BC2231" stroke="none" d="
M 3.75 -11.5
L 6.25 -21 -9.25 -21 -9.25 21 2.25 20.5 2.75 9.5 10.25 5 3.75 -11.5 Z"/>
</g>

<g id="d_39a_0_Layer0_0_FILL">
<path fill="#BC2231" stroke="none" d="
M 46 29.5
L 46.5 18.25 28.5 17.75 30.25 24 38.75 29.75 46 29.5 Z"/>
</g>

<g id="d_41000_0_Layer0_0_FILL">
<path fill="#BC2231" stroke="none" d="
M 29.5 -37.4
L -25.9 -40.2 -29.5 38.5 28.5 38 29.5 -37.4 Z"/>
</g>

<g id="d_47a_0_Layer0_0_FILL">
<path fill="#BC2231" stroke="none" d="
M -35.85 -32.4
L -38.1 -27.4 -18.6 32.35 38.15 31.35 38.15 3.35 21.4 3.35 21.4 -32.4 -35.85 -32.4 Z"/>
</g>

<g id="d_49a_0_Layer0_0_FILL">
<path fill="#BC2231" stroke="none" d="
M 28.4 -11.1
L 28.4 -13.6 -28.35 -12.6 -23.35 2.15 -9.35 13.65 22.15 13.65 22.15 8.65 23.65 8.65 23.65 -9.1 26.4 -9.1 26.4 -11.1 28.4 -11.1 Z"/>
</g>

<g id="d_1_2_0_Layer0_0_FILL">
<path fill="#BC2231" stroke="none" d="
M -18 -9
L -18 9 0 9 0 -9 -18 -9 Z"/>
</g>

<g id="d_1_2_0_Layer0_1_FILL">
<path fill="#BC2231" stroke="none" d="
M 18 -9
L 0 -9 0 9 18 9 18 -9 Z"/>
</g>

<g id="d_3_0_Layer0_0_FILL">
<path fill="#BC2231" stroke="none" d="
M -9 -9
L -9 9 9 9 9 -9 -9 -9 Z"/>
</g>

<g id="d_4_0_Layer0_0_FILL">
<path fill="#BC2231" stroke="none" d="
M -9 -9
L -9 9 9 9 9 -9 -9 -9 Z"/>
</g>

<g id="d_5_0_Layer0_0_FILL">
<path fill="#BC2231" stroke="none" d="
M -18 -9
L -18 9 0 9 0 -9 -18 -9 Z"/>
</g>

<g id="d_5_0_Layer0_1_FILL">
<path fill="#BC2231" stroke="none" d="
M 18 -9
L 0 -9 0 9 18 9 18 -9 Z"/>
</g>

<g id="d_6_0_Layer0_0_FILL">
<path fill="#BC2231" stroke="none" d="
M -185 -74.95
L -185 -92.95 -203 -92.95 -203 -74.95 -185 -74.95 Z"/>
</g>

<g id="d_6_0_Layer0_1_FILL">
<path fill="#BC2231" stroke="none" d="
M 18 -9
L 0 -9 0 9 18 9 18 -9 Z"/>
</g>

<g id="d_7_0_Layer0_0_FILL">
<path fill="#BC2231" stroke="none" d="
M -18 -9
L -18 9 0 9 0 -9 -18 -9 Z"/>
</g>

<g id="d_7_0_Layer0_1_FILL">
<path fill="#BC2231" stroke="none" d="
M -185 -74.95
L -185 -92.95 -203 -92.95 -203 -74.95 -185 -74.95 Z"/>
</g>

<g id="d_8_9_0_Layer0_0_FILL">
<path fill="#BC2231" stroke="none" d="
M -18 -9
L -18 9 0 9 0 -9 -18 -9 Z"/>
</g>

<g id="d_8_9_0_Layer0_1_FILL">
<path fill="#BC2231" stroke="none" d="
M 18 -9
L 0 -9 0 9 18 9 18 -9 Z"/>
</g>

<g id="d_BUS_0_Layer0_0_FILL">
<path fill="#BC2231" stroke="none" d="
M -102.2 -32.65
L -102.2 26.9
Q 73.7111328125 68.4376953125 97.7 28.2
L 100.15 -24
Q -4.25 -24.75 -102.2 -32.65 Z"/>
</g>

<g id="d_41_0_Layer0_0_FILL">
<path fill="#BC2231" stroke="none" d="
M -16.85 -0.9
L -12.6 9.25 16.8 0 8.95 -9.3 -16.85 -0.9 Z"/>
</g>

<g id="d_T3_0_Layer0_0_FILL">
<path fill="#BC2231" stroke="none" d="
M -12.25 -6
L -6 13.25 12.25 5.5 6 -13.25 -12.25 -6 Z"/>
</g>

<g id="d_T2_0_Layer0_0_FILL">
<path fill="#BC2231" stroke="none" d="
M 7.15 -9.1
L -11.1 -1.35 -7.85 9.15 11.15 2.4 7.15 -9.1 Z"/>
</g>

<g id="d_T1_0_Layer0_0_FILL">
<path fill="#BC2231" stroke="none" d="
M 28.75 99.75
L 32.75 111.5 52.25 107.25 47.75 93 28.75 99.75 Z"/>
</g>

<g id="d_42_0_Layer0_0_FILL">
<path fill="#BC2231" stroke="none" d="
M 14.65 -9.35
L -14.75 -9.4 -14.75 9.35 14.75 9.6 14.65 -9.35 Z"/>
</g>

<g id="d_30_0_Layer0_0_FILL">
<path fill="#BC2231" stroke="none" d="
M -5.25 -11.25
L -7.25 -8.75 -0.75 11.5 7.25 11.75 7.15 -11.75 -5.25 -11.25 Z"/>
</g>

<g id="d_31a_0_Layer0_0_FILL">
<path fill="#BC2231" stroke="none" d="
M 6.1 -12.05
L -6.3 -11.5 -6.2 12 6.3 12 6.1 -12.05 Z"/>
</g>

<g id="d_31b_0_Layer0_0_FILL">
<path fill="#BC2231" stroke="none" d="
M 36.05 -45.3
L 36.25 -21.25 46 -21.5 46.15 -45.75 36.05 -45.3 Z"/>
</g>

<g id="d_32_0_Layer0_0_FILL">
<path fill="#BC2231" stroke="none" d="
M 6.65 -12.55
L -6.45 -12 -6.6 12.25 6.4 12.5 6.65 -12.55 Z"/>
</g>

<g id="d_33_0_Layer0_0_FILL">
<path fill="#BC2231" stroke="none" d="
M 74.15 -46.9
L 59.25 -46.3 59 -21.25 66.75 -21.5 66.75 -22.8
Q 66.75 -25.05 66.75 -29.25 66.75 -29.4 70.3 -29.6 72.05 -29.7 73.8 -29.75
L 74.15 -46.9 Z"/>
</g>

<g id="d_34_0_Layer0_0_FILL">
<path fill="#BC2231" stroke="none" d="
M 76 -29
L 75.75 -31 84.75 -31 84.65 -47.35 74.15 -46.9 73.75 -29 76 -29 Z"/>
</g>

<g id="d_35_0_Layer0_0_FILL">
<path fill="#BC2231" stroke="none" d="
M 5.2 -8.4
L -5.15 -8 -5.05 8.35 5.2 8.1 5.2 -8.4 Z"/>
</g>

<g id="d_36_0_Layer0_0_FILL">
<path fill="#BC2231" stroke="none" d="
M 5.5 8.5
L 5.5 -8.5 -5.5 -8 -5.5 8.5 5.5 8.5 Z"/>
</g>

<g id="d_37_0_Layer0_0_FILL">
<path fill="#BC2231" stroke="none" d="
M 21.15 -13.4
L 21.15 -12.1 -29.85 -12.1 -21.6 13.4 29.9 13.4 29.65 -12.85 21.15 -13.4 Z"/>
</g>

<g id="d_38_0_Layer0_0_FILL">
<path fill="#BC2231" stroke="none" d="
M 76 19.5
L 75.5 4 24 4 28.5 17.75 46.5 18.25 46 29.5 66.5 30 67 19.5 76 19.5 Z"/>
</g>

<g id="d_40_0_Layer0_0_FILL">
<path fill="#BC2231" stroke="none" d="
M 22.75 -26
L 22 -31.25 -38.25 -31.25 -35.25 -21.5 -14 -20.25 -19.5 17 -16.75 17 -16.25 25.25 -2.25 22.25 1.25 31.25 37.5 24 34.75 15.75 38.25 14.25 35.75 6.25 35.75 -26.25 22.75 -26 Z"/>
</g>

<g id="d_43_0_Layer0_0_FILL">
<path fill="#BC2231" stroke="none" d="
M 243.2 -21.55
L 268 -21.5 263.25 -35 243.25 -51 243.2 -21.55 Z"/>
</g>

<g id="d_44_0_Layer0_0_FILL">
<path fill="#BC2231" stroke="none" d="
M 268 -21.5
L 243.25 -21.5 242.75 2.75 276 2.5 268 -21.5 Z"/>
</g>

<g id="d_45_0_Layer0_0_FILL">
<path fill="#BC2231" stroke="none" d="
M 283 23.75
L 276 2.5 242.75 2.75 242.75 24.25 283 23.75 Z"/>
</g>

<g id="d_46_0_Layer0_0_FILL">
<path fill="#BC2231" stroke="none" d="
M 22.75 12
L 22.75 6 17.45 -12 -22.75 -12 -22.75 11.5 22.75 12 Z"/>
</g>

<g id="d_TS_0_Layer0_0_FILL">
<path fill="#BC2231" stroke="none" d="
M 99.55 -39.8
L 99.55 -61.75 19.3 -61.7
Q 2.7 -60.95 -13.95 -60.2 -47.2 -58.7 -47.2 -58.65
L -47.25 -38.9 -88.35 -38.6 -88 -36.3 -100.5 -36.6 -100.6 -29.1 -89.05 -28.45 -88 20.05 -100.25 20.05 -100.9 32.25 -138.65 31.95 -139.65 37.75 -56.75 37.8 -56.45 43.05 9.05 43.05 9.05 32.55 13.8 32.55 13.8 61.8 87.55 61.8 87.55 32.55 133.55 32.55 133.8 48.05 108.05 48.05 108.05 52.8 138.9 52.55 139.65 -39.5 99.55 -39.8 Z"/>
</g>

<g id="d_b1_0_Layer0_0_FILL">
<path fill="#BC2231" stroke="none" d="
M 2.7 -6.25
L -6.5 -2.5 -2.4 6.25 6.45 3.35 2.7 -6.25 Z"/>
</g>

<g id="d_b2_0_Layer0_0_FILL">
<path fill="#BC2231" stroke="none" d="
M -7.1 -7.1
L -7.1 7.15 7.15 7.15 7.15 -7.1 -7.1 -7.1 Z"/>
</g>

<g id="d_b3_0_Layer0_0_FILL">
<path fill="#BC2231" stroke="none" d="
M 3.95 -5.15
L -6.45 -1.15 -2.65 5.1 6.45 1.2 3.95 -5.15 Z"/>
</g>

<g id="level1_0_Layer2_0_FILL">
<path fill="#999999" stroke="none" d="
M -245.3 -94.85
L -276.05 -75.95 -271.55 -66.55 -297.05 -56.05 -291.05 -42.65 -286.95 -33.7 -227.05 -49.55 -229.05 -57.05 -245.3 -94.85
M 173.9 109.25
Q 174.25 109.65 174.6 110.1
L 109 113.3 22 113.3 17.55 101.35 5.5 104.45 -6 72.45 5.25 68.25 -0.65 52.35 -9.5 55.45 -22.4 22.25 -13.2 18.65 -14.3 15.75 -36 22.95 -34.5 26.35 -37.5 27.45 -16.8 84.15 -9 105.45 -28.8 112.35 -35.5 114.8 -35.95 114.8
Q -67.3 113.7 -98.85 113.55
L -114.7 113.6
Q -125.1 113.65 -135.5 113.8
L -152.9 68.45 -160.45 48.9 -181.05 55.95 -168.75 89.65 -163.2 104.7
Q -161.8 108.3 -160.45 111.95 -157.75 119.2 -155 126.5
L -149 132.5 194.35 132.25
Q 183.8 123.35 175.85 111.9 183.45 122.1 194.35 132.25
L 214 130.75 184.05 48.95 158.55 58.45
Q 158.25 61.8 158.3 65.15 159.7 90.95 173.9 109.25
M 183.15 72.7
L 191.45 71.75 192.2 79.7 183.9 80.45 183.15 72.7
M 177.55 54.45
L 182.05 66.2
Q 177.15 74.8 180.25 80.55 181.95 83.85 186.3 86.2 188.1 87.15 190.3 87.95
L 190.3 111.2
Q 181.85 101.5 176.65 93.25 159.6 66.15 177.55 54.45
M 185.1 74.4
Q 185.05 77.75 185.4 78.15
L 190.15 77.8 190.15 74.15
Q 187.4 74.35 185.1 74.4 Z"/>

<path fill="#333333" stroke="none" d="
M -357.55 -115.1
L -354.05 -115.1 -352.05 -71.05 -355.55 -69.55 -353.5 -49.5 -344.9 -49.8 -353.5 -49.3 -351.05 -25.05 -326.05 -26.55 -318.05 -26.55 -287.55 -34.55 -291.05 -42.65 -297.05 -56.05 -271.55 -66.55 -285.95 -95.2 -296.55 -91.1 -299.5 -97.8 -296.45 -91.7 -285.55 -95.6 -286.7 -98.2 -276.05 -75.95 -245.3 -94.85 -263.55 -137.1 -358.05 -136.6 -357.55 -115.1
M -305.35 -111.2
L -304.8 -109.95 -304.85 -110 -305.35 -111.2
M -202.55 60.45
L -214.7 64.2 -199.05 108.95 -166.05 97.45 -168.75 89.65 -181.05 55.95 -201.55 62.45 -202.55 60.45
M -13 95.8
L -16.8 84.15 -37.5 27.45 -112.5 53.45 -106 72.3 -98 69.8 -106.35 72.75 -112.5 53.45 -123.05 56.9 -116 76.8 -138.55 83.75 -116.15 76.4 -123.45 57.05 -153.3 67.35 -152.9 68.45 -135.5 113.8
Q -125.1 113.65 -114.7 113.6
L -98.85 113.55 -83 113.3 -53.5 113.8 -35.95 114.8 -35.5 114.8 -28.8 112.35 -22 109.8 -26 100.8 -13 95.8
M 100.5 -103.2
L 84 -149.7 -58 -101.7 -41.9 -57.55 -14.3 15.75 -13.2 18.65 -22.4 22.25 -9.5 55.45 -0.65 52.35 5.25 68.25 -6 72.45 5.5 104.45 17.55 101.35 22 113.3 109 113.3 174.6 110.1
Q 174.25 109.65 173.9 109.25 159.7 90.95 158.3 65.15 158.25 61.8 158.55 58.45
L 184.05 48.95 137.05 -79.55 123.5 -75.45 137.15 -79.9 126 -111.7 100.5 -103.2
M 67 85.3
L 66.5 88.8 48 88.8 48.7 64.5 48.55 88.45 66.05 88.45 67 85.3 Z"/>

<path fill="#CCCCCC" stroke="none" d="
M -80.5 -157.6
L -101.5 -151.6 -36 22.95 -14.3 15.75 -41.9 -57.55 -80.5 -157.6 Z"/>

<path fill="#666666" stroke="none" d="
M 182.05 66.2
L 177.55 54.45
Q 159.6 66.15 176.65 93.25 181.85 101.5 190.3 111.2
L 190.3 87.95
Q 188.1 87.15 186.3 86.2 181.95 83.85 180.25 80.55 177.15 74.8 182.05 66.2
M 191.45 71.75
L 183.15 72.7 183.9 80.45 192.2 79.7 191.45 71.75
M 185.4 78.15
Q 185.05 77.75 185.1 74.4 187.4 74.35 190.15 74.15
L 190.15 77.8 185.4 78.15 Z"/>
</g>

<g id="Symbol_7_0_Layer0_0_FILL">
<path fill="#CCCCCC" stroke="none" d="
M 211.3 -1.95
L 191.65 -0.45 -151.7 -0.2 -157.7 -6.2
Q -160.45 -13.5 -163.15 -20.75 -164.5 -24.4 -165.9 -28
L -168.75 -35.25 -201.75 -23.75 -202.75 -26.55 -209.25 -23.75 -200.75 -0.7 -209.75 3.3 -211.25 35.3
Q -8.6 17.1 192.7 20.95
L 211.3 -1.95 Z"/>
</g>

<g id="d_55_58_0_Layer0_0_FILL">
<path fill="#BC2231" stroke="none" d="
M 108 -170.5
L 82.5 -162 66 -208.5 -76 -160.5 4 54.5 91 54.5 81 26.5 49 26.5 48.5 30 30 30 31 -13 16.5 -9 1.5 -48 35.5 -59.5 18 -106.5 37.5 -112 47 -85.5 70.5 -94.5 60.5 -122 93 -133.5 95 -131 120 -139 108 -170.5 Z"/>
</g>

<g id="d_59_0_Layer0_0_FILL">
<path fill="#BC2231" stroke="none" d="
M -43.1 -49.35
L -42.85 -38.25 -39.35 -38.35 -37.25 6.25 -40.9 7.9 -39.1 27.15 -16 26.35 -15.85 43.1 -11.5 43.15 -11.4 50.65 -3.5 50.1 26.15 42.5 16.5 20.9 42 10.4 28.5 -17.9 17.5 -13.25 8.5 -33.75 -5.35 -28 -11.25 -42 -15.75 -50.75 -43.1 -49.35 Z"/>
</g>

<g id="d_54_0_Layer0_0_FILL">
<path fill="#BC2231" stroke="none" d="
M 51.5 130.5
L 47.5 121.5 60.5 116.5 55 105.5 14.65 120.45 20 134.5 38 135.5 51.5 130.5 Z"/>
</g>

<g id="d_53a_0_Layer0_0_FILL">
<path fill="#BC2231" stroke="none" d="
M -20.75 -13.55
L -8.75 21.25 20.75 21.75 4.25 -21.75 -20.75 -13.55 Z"/>
</g>

<g id="d_50a_0_Layer0_0_FILL">
<path fill="#BC2231" stroke="none" d="
M 7.7 -11.75
L 1.2 -29.75 -9.8 -26.25 -2.3 -7.25 -30.75 1.75 -21.8 29.75 30.7 29.25 18.7 -5.55 15.7 -14.25 7.7 -11.75 Z"/>
</g>

<g id="level2_0_Layer2_0_FILL">
<path fill="#333333" stroke="none" d="
M -61.35 148.4
L -61.35 148.35 -57.7 118.95 -71.6 118.95 -71.7 119.45 -78.75 157.95 -62.8 161 -63.15 160.95 -61.95 152.6
Q -61.912109375 152.521875 -61.9 152.45
L -61.35 148.4
M -120.85 111.05
L -120.85 111.05 -179.95 107.55 -180.15 115
Q -180.5291015625 115.125 -180.8 134.55 -181.079296875 153.9693359375 -181.55 168.35
L -166.75 168.35 -166.3 182.1 -142.05 175.15 -133.95 172.75
Q -140.405078125 157.6744140625 -146.85 142.6
L -147.95 140.05 -159 114.7 -174.4 114.4 -158.75 114.35 -151.05 132.5 -139.8 128.65 -144.2 117.95 -135.85 115.35 -113.15 169.15 -99.15 164.35 -120.85 111.05
M -106.35 112.05
L -117.9 111.25 -117.9 111.25 -97.15 162.35 -86.75 158.75 -106.35 112.05
M -119.05 -24.95
L -119.05 -24.95 -119 -26 -135 -26 -154 -76 -168 -71 -138.65 1.85 -138.65 1.9 -127.55 1.3
Q -126.4255859375 1.23125 -125.3 1.15 -124.6619140625 1.1318359375 -124.05 1.1
L -120.7 0.9 -119.05 -24.95
M 18.6 -124.8
L 14.8 -133.65 -18.05 -124.1 -18.8 -125.95 -39.45 -119.5 -41.9 -118.4 -32.45 -94.5 -14.45 -99.5 -12.1 -93.65 -12.6 -93.45 -14.45 -99.5 -32.55 -94 -38.55 -109.75 -56.45 -104 -49.85 -87.9 -50.45 -88 -56.45 -104 -56.45 -104.05 -109.9 -86.3 -123.95 -81.45 -119.8 -70.9 -134.35 -66.5 -135.4 -68.55 -139.55 -67.35
Q -139.280859375 -66.4240234375 -128.8 -40.1
L -41.75 -39.8 -49.15 -57 -49.2 -57 -49.55 -57.85 -49.5 -57.85 -41.15 -39.4 -15.05 -47.9 -16.75 -52.4
Q -16.1984375 -51.0087890625 -15.65 -49.65
L -15.35 -48.95
Q -15.35 -48.8 -15.2 -48.6
L -11.55 -40.7 12.65 -40.45 116.25 -40.6 125.5 -40.7 142.5 -81.75 133.85 -104 117.9 -98.45 117.2 -84.35 97.4 -84.1 96.35 -74.1 53.35 -74.4 53 -83.5 78 -84.1 77.6 -92 57.85 -92.3 57.85 -106.05 58.1 -92.4 78.1 -92.2 78.35 -83.8 53.1 -83.1 53.45 -74.6 96.05 -74.45 97 -84.55 116.9 -84.8 117.65 -98.6 133.8 -104.45 139.95 -89.3 152.65 -93.5 123 -166.8 14.9 -133.9 18.6 -124.8
M -6.75 -105.8
L -3.2 -106.65 0.5 -98.5 -3.5 -106.5 -6.75 -105.8
M -46.95 -87.6
L -44.45 -79.5 -47.45 -87.5 -48.05 -87.6 -46.95 -87.6
M -68.95 -82.5
L -73.45 -74.5 -71.6 -70.75 -73.65 -74.7 -68.95 -82.5
M -67.95 -63
L -67.55 -62.2 -68.1 -63.25 -55.25 -67.1 -67.95 -63 Z"/>

<path fill="#999999" stroke="none" d="
M 204.8 129.55
L 208 123.15 208 118.75 -57.65 118.75 -57.7 118.95 -61.35 148.35 -61.35 148.4 -61.9 152.45
Q -61.912109375 152.521875 -61.95 152.6
L -63.15 160.95 -62.8 161 -78.75 157.95 -71.7 119.45 -71.55 118.75 -71.55 114.35 -106.35 112.05 -86.75 158.75 -97.15 162.35 -117.9 111.25 -117.9 111.25 -120.85 111.05 -120.85 111.05 -99.15 164.35 -113.15 169.15 -135.85 115.35 -144.2 117.95 -139.8 128.65 -151.05 132.5 -147.95 140.05 -146.85 142.6
Q -140.405078125 157.6744140625 -133.95 172.75
L -142.05 175.15 -166.65 182.75 -149.65 196.15 50 163.95 58 179.95 62 174.75 58 165.15 204.8 129.55
M -61.25 161.3
L -61 161.35 -61 161.4 -61.25 161.3
M 341.2 101.15
L 340 70.4 -163.55 70.4 -163.55 91.95
Q 91.8 108.549609375 341.2 101.15
M 326.4 83.15
L 326.4 87.55 305.25 87.55 305.2 83.15 326.4 83.15
M 269.6 80.4
L 269.6 92.75 240.4 92.75 240.4 80.4 269.6 80.4
M 274.8 88.75
L 274.8 84.35 295.2 84.35 295.2 88.75 274.8 88.75
M 172 91.55
L 172 85.95 207.2 85.95 207.2 91.55 172 91.55
M 102 91.55
L 102 81.25 155.2 81.2 155.2 91.55 102 91.55
M 14 80.8
L 14 90.75 -17.95 90.75 -17.95 80.8 14 80.8
M 54 78.8
L 67.2 78.4 67.2 91.15 54 91.15 54 78.8
M -62.35 81.2
L -62.35 87.15 -93.55 87.15 -92.75 81.2 -62.35 81.2
M 340.4 48.4
L 340.8 16
Q 92.1853515625 9.7021484375 -163.95 22.8
L -163.95 48.4 340.4 48.4
M 324 28.8
L 324 32.8 304.8 32.8 304.8 28.8 324 28.8
M 294.4 28.8
L 294.4 32.8 275.6 32.8 275.6 28.8 294.4 28.8
M 268.8 25.6
L 268.8 37.2 240.8 37.2 240.8 25.6 268.8 25.6
M 207.2 30.4
L 207.2 36.8 172 36.8 172 30.4 207.2 30.4
M 154.8 24.8
L 154.8 36.8 101.6 36.8 101.6 24.4 154.8 24.8
M 54 25.2
L 67.2 24.4 67.2 39.2 54 39.2 54 25.2
M 14.8 26.4
L 14.8 35.6 -16.8 35.6 -16.8 26 14.8 26.4
M -63.55 27.6
L -63.55 35.6 -94.35 35.6 -94.35 28.4 -63.55 27.6
M -143.95 36.4
L -143.95 32.4 -123.95 32.4 -123.95 36.4 -143.95 36.4
M 225.65 -78.45
L 228.8 -68.8 347.55 -81.8 325.45 -109 225.65 -78.45
M 211.35 -74.15
L 216.45 -62
Q 209.0216796875 -54.9060546875 213.35 -48.4 216.751953125 -41.8884765625 224.7 -41.9
L 224.7 -21.5 247.7 -9.65 355.35 -6.05 365.05 -61.8 361.8 -52.05 315.75 -47.55 315.75 -56.45 349.8 -60.3 349.8 -54.55 361.3 -54.55 361.3 -61.8 365.05 -61.8 361.8 -74.3 348.85 -72.9 347.75 -72.75
Q 347.199609375 -72.684375 346.65 -72.65 330.22890625 -70.837109375 313.8 -69.05
L 313.8 -73.8 303.55 -73.8 303.55 -67.8 267.3 -63.05 267.3 -68.55 257.8 -68.55 257.8 -62.8 238.05 -60.3
Q 236.8 -62.4 234.95 -63.8 234.896875 -63.8390625 234.85 -63.9
L 230.95 -65.7
Q 228.681640625 -66.249609375 225.85 -66.2
L 220.95 -77 211.35 -74.15
M 222.55 -50.95
L 222.15 -56.65 222.05 -56.65 222.05 -58.2 226.2 -58.2 226.2 -58.65 230.6 -58.65 230.6 -56.65 230.55 -56.65 230.55 -52.55 231.1 -52.55 231.1 -51.2 230.55 -51.2 230.55 -51.05 224.3 -51.05 224.3 -50.95 222.55 -50.95
M 239.05 -38.05
L 236.8 -38.7 235.2 -39.55 235.8 -39.55 239.55 -47.3 259.05 -49.8 259.05 -44.3 270.05 -44.3 270.05 -51.3 305.05 -55.25 305.8 -45.8 239.05 -38.05
M 251 -26.3
Q 251.35 -33.4 256.6 -36.1
L 298.7 -40.8
Q 304.1 -38.65 299.6 -34.6
L 261.65 -30.25
Q 256.6 -28.6 257.35 -23.25 258.75 -17.15 263.75 -18.15
L 301.3 -18.35
Q 305.4 -16.1 301.5 -11.75
L 259.2 -11.55
Q 252.5 -12.7 251.1 -22.7 250.9 -24.6 251 -26.3
M 321 -31.1
L 321 -31.75 324.5 -31.75 324.5 -30.55 324.8 -30.55 324.8 -23.55 316.7 -23.55 316.7 -24.45 316.5 -24.45 316.5 -27.45 316.2 -27.45 316.2 -30.8 318 -30.8 318 -31.1 321 -31.1
M 314.9 -12.5
L 315.25 -19.1 351.3 -19.65 351.1 -13.05 314.9 -12.5
M 361.85 -47.4
L 361.1 -41.35 328.85 -37.8 328.1 -43.45 361.85 -47.4
M 350.2 -35.85
Q 352.15 -33.9 352.15 -31.15 352.15 -28.4 350.2 -26.45 348.25 -24.5 345.5 -24.5 342.75 -24.5 340.8 -26.45 338.85 -28.4 338.85 -31.15 338.85 -33.9 340.8 -35.85 342.75 -37.8 345.5 -37.8 348.25 -37.8 350.2 -35.85
M 318.2 -29.25
L 318.2 -27.45 318.15 -27.45 318.15 -25.5 323.35 -25.5 323.35 -29.2 321 -29.2 321 -29.25 318.2 -29.25
M 229.1 -56.65
L 224.3 -56.65 224.3 -52.75 229.1 -52.75 229.1 -56.65
M 154 -91.05
L 152.65 -93.5 139.95 -89.3 143 -81.85 125.9 -40.5 116.25 -40.6 12.65 -40.45 -11.55 -40.25 -15.05 -47.9 -41.15 -39.4 -128.95 -39.65 -139.95 -67.2 -139.55 -67.35 -135.4 -68.55 -134.35 -66.5 -119.8 -70.9 -123.95 -81.45 -109.9 -86.3 -95.9 -91.3 -103.45 -110 -111.95 -107.5 -108.45 -97.5 -152.95 -83.5 -151.55 -76.9 -154 -76 -135 -26 -119 -26 -119.05 -24.95 -119.05 -24.95 153 -24 142 -46 158 -87 242 -113 254 -136 249.2 -138.1 237.3 -117.15 154 -91.05 Z"/>

<path fill="#CCCCCC" stroke="none" d="
M -62.35 87.15
L -62.35 81.2 -92.75 81.2 -93.55 87.15 -62.35 87.15
M 67.2 78.4
L 54 78.8 54 91.15 67.2 91.15 67.2 78.4
M 14 90.75
L 14 80.8 -17.95 80.8 -17.95 90.75 14 90.75
M 102 81.25
L 102 91.55 155.2 91.55 155.2 81.2 102 81.25
M 172 85.95
L 172 91.55 207.2 91.55 207.2 85.95 172 85.95
M 274.8 84.35
L 274.8 88.75 295.2 88.75 295.2 84.35 274.8 84.35
M 269.6 92.75
L 269.6 80.4 240.4 80.4 240.4 92.75 269.6 92.75
M 326.4 87.55
L 326.4 83.15 305.2 83.15 305.25 87.55 326.4 87.55
M -143.95 32.4
L -143.95 36.4 -123.95 36.4 -123.95 32.4 -143.95 32.4
M -63.55 35.6
L -63.55 27.6 -94.35 28.4 -94.35 35.6 -63.55 35.6
M 14.8 35.6
L 14.8 26.4 -16.8 26 -16.8 35.6 14.8 35.6
M 67.2 24.4
L 54 25.2 54 39.2 67.2 39.2 67.2 24.4
M 154.8 36.8
L 154.8 24.8 101.6 24.4 101.6 36.8 154.8 36.8
M 207.2 36.8
L 207.2 30.4 172 30.4 172 36.8 207.2 36.8
M 268.8 37.2
L 268.8 25.6 240.8 25.6 240.8 37.2 268.8 37.2
M 294.4 32.8
L 294.4 28.8 275.6 28.8 275.6 32.8 294.4 32.8
M 324 32.8
L 324 28.8 304.8 28.8 304.8 32.8 324 32.8 Z"/>

<path fill="#666666" stroke="none" d="
M 315.75 -56.45
L 315.75 -47.55 361.8 -52.05 365.05 -61.8 361.3 -61.8 361.3 -54.55 349.8 -54.55 349.8 -60.3 315.75 -56.45
M 216.45 -62
L 211.35 -74.15
Q 196.6291015625 -61.81484375 207.35 -44 207.90703125 -42.62734375 208.5 -41.35 214.187890625 -28.766015625 223 -22.6 223.4490234375 -22.29140625 223.9 -22
L 224.55 -21.6
Q 224.642578125 -21.5349609375 224.7 -21.5
L 224.7 -41.9
Q 216.751953125 -41.8884765625 213.35 -48.4 209.0216796875 -54.9060546875 216.45 -62
M 352.15 -31.15
Q 352.15 -33.9 350.2 -35.85 348.25 -37.8 345.5 -37.8 342.75 -37.8 340.8 -35.85 338.85 -33.9 338.85 -31.15 338.85 -28.4 340.8 -26.45 342.75 -24.5 345.5 -24.5 348.25 -24.5 350.2 -26.45 352.15 -28.4 352.15 -31.15
M 361.1 -41.35
L 361.85 -47.4 328.1 -43.45 328.85 -37.8 361.1 -41.35
M 315.25 -19.1
L 314.9 -12.5 351.1 -13.05 351.3 -19.65 315.25 -19.1
M 321 -31.75
L 321 -31.1 318 -31.1 318 -30.8 316.2 -30.8 316.2 -27.45 316.5 -27.45 316.5 -24.45 316.7 -24.45 316.7 -23.55 324.8 -23.55 324.8 -30.55 324.5 -30.55 324.5 -31.75 321 -31.75
M 318.2 -27.45
L 318.2 -29.25 321 -29.25 321 -29.2 323.35 -29.2 323.35 -25.5 318.15 -25.5 318.15 -27.45 318.2 -27.45
M 256.6 -36.1
Q 251.35 -33.4 251 -26.3 250.9 -24.6 251.1 -22.7 252.5 -12.7 259.2 -11.55
L 301.5 -11.75
Q 305.4 -16.1 301.3 -18.35
L 263.75 -18.15
Q 258.75 -17.15 257.35 -23.25 256.6 -28.6 261.65 -30.25
L 299.6 -34.6
Q 304.1 -38.65 298.7 -40.8
L 256.6 -36.1
M 236.8 -38.7
L 239.05 -38.05 305.8 -45.8 305.05 -55.25 270.05 -51.3 270.05 -44.3 259.05 -44.3 259.05 -49.8 239.55 -47.3 235.8 -39.55 235.2 -39.55 236.8 -38.7
M 222.55 -56.65
L 222.55 -50.95 224.3 -50.95 224.3 -51.05 230.55 -51.05 230.55 -51.2 231.1 -51.2 231.1 -52.55 230.55 -52.55 230.55 -56.65 230.6 -56.65 230.6 -58.65 226.2 -58.65 226.2 -58.2 222.05 -58.2 222.05 -56.65 222.15 -56.65 222.55 -56.65
M 224.3 -56.65
L 229.1 -56.65 229.1 -52.75 224.3 -52.75 224.3 -56.65
M 225.65 -78.45
L 225.65 -78.5 220.95 -77 226.05 -66.3
Q 228.75703125 -66.3 230.95 -65.7
L 234.85 -63.9
Q 234.896875 -63.8390625 234.95 -63.8 236.8 -62.4 238.05 -60.3
L 257.8 -62.8 257.8 -68.55 267.3 -68.55 267.3 -63.05 303.55 -67.8 303.55 -73.8 313.8 -73.8 313.8 -69.05
Q 330.22890625 -70.837109375 346.65 -72.65 347.199609375 -72.684375 347.75 -72.75
L 348.85 -72.9 347.55 -81.8 228.8 -68.8 225.65 -78.45 Z"/>
</g>

<g id="Symbol_6_0_Layer0_0_FILL">
<path fill="#CCCCCC" stroke="none" d="
M 144.45 -67.75
L 153.2 -70.85 141.9 -74.8 141.95 -74.8 154.05 -70.6
Q 154.25 -70.65 154.45 -70.7
L 158.75 -72.1 158.8 -72.05 258.55 -102.6 209.1 -120.6 187.1 -129.6 175.1 -106.6 91.1 -80.6 75.1 -39.6 86.1 -17.6 -185.9 -18.55 -187.6 7.35 -190.9 7.5
Q -191.55 7.55 -192.2 7.6 -193.35 7.65 -194.45 7.7
L -205.55 8.3
Q -245.85 10.4 -286.05 13.2
L -288.45 110.75 -138.45 120.75 -138.45 125.15 141.1 125.15 141.1 129.55 174.3 129.55 174.3 124.75 275.1 124.75 273.9 6.4 288.45 0.35 180.8 -3.25 157.8 -15.1
Q 157.75 -15.15 157.7 -15.15
L 157 -15.6
Q 156.55 -15.9 156.1 -16.2 146.8 -22.2 141.6 -34.9 140.7 -36.7 139.85 -38.6 129.25 -56 144.45 -67.75
M -230.45 98.35
L -230.45 76.8 273.1 76.8 274.3 107.55
Q 24.9 114.95 -230.45 98.35
M -230.85 54.8
L -230.85 29.2
Q 25.3 16.1 273.9 22.4
L 273.5 54.8 -230.85 54.8 Z"/>
</g>

<g id="d_60_1_0_Layer0_0_FILL">
<path fill="#BC2231" stroke="none" d="
M 24.55 -5.55
L 13.95 -0.9 11.95 -5.55 15.3 -12.6 10.6 -25 -24 -11.8 -21 -2.4 -31.7 1.25 -32.25 -0.4 -35.25 0.6
Q -35.25 0.85 -27.5 23.85
L 35.25 24.1 29.6 8.7 29.65 8.7 29.5 8.35 19.4 11.9 16.25 4.1 26.8 0.15 24.55 -5.55 Z"/>
</g>

<g id="d_62_0_Layer0_0_FILL">
<path fill="#BC2231" stroke="none" d="
M -26.75 -10.2
L -39.8 -6
Q -33.75 13.5 -27.45 31.85
L -27.25 32.45
Q -27.25 32.6 -27.15 32.75
L -24.5 39.5 37.5 39.75 38 11 22.25 10.75 22 3 40 2.5 39.75 -4.25 25.5 -4.5 25.5 -16.25 5.25 -9.5 -5.5 -39.75 -28.95 -31.55 -23.3 -15.8 -18.5 -17.05 -15.35 -9.6 -24.85 -5.15 -26.75 -10.2 Z"/>
</g>

<g id="d_64_0_Layer0_0_FILL">
<path fill="#BC2231" stroke="none" d="
M -15.4 -28.5
Q -15.55 -28.5 -16.1 -6 -16.4 5.25 -16.65 16.5
L -6.15 16.5 -6.15 28.75 16.6 20.5 -0.9 -28.75 -15.4 -28.5 Z"/>
</g>

<g id="d_63_0_Layer0_0_FILL">
<path fill="#BC2231" stroke="none" d="
M 24.5 -8.15
L 18.25 -27.15 6.75 -22.4 6.25 -10.4 -8 -10.15 -8.75 -1.65 -24 -1.65 -24.5 27.1 12.25 26.85 24.5 -8.15 Z"/>
</g>

<g id="d_PR_0_Layer0_0_FILL">
<path fill="#BC2231" stroke="none" d="
M -8.15 -5.65
L -20.55 -0.6 -17.55 5.75 -6.45 2.6 -1.8 11.55 -13.8 15.55 -5.8 34.3 20.8 25.6 20.65 25.25
Q 20.5 25.05 20.5 24.9
L 20.2 24.2
Q 11.5 2.65 3.75 -18.65
L -3 -35.4 -20.1 -29.85 -13.85 -13.75 -11.1 -13.75 -9.4 -9.35 -8.15 -5.65 Z"/>
</g>

<g id="level3_0_Layer2_0_FILL">
<path fill="#CCCCCC" stroke="none" d="
M -90.15 9.25
L -96.15 9.25 -96.15 26.2 -90.15 26.2 -90.15 9.25
M -28.35 7.15
L -28.35 23.7 -23.25 23.7 -23.25 7.15 -28.35 7.15
M 8.4 6.5
L 4.3 6.5 4.3 22.7 4.3 22.85 5.85 22.75 8.4 22.6 8.4 13.45 8.4 6.5
M 44.1 20.45
L 44.1 5.65 40.4 5.65 40.4 14.95 40.4 21.85 44.1 21.85 44.1 20.45
M 77.1 4.35
L 72 4.35 72 21.3 75.2 21.3 77.1 21.3 77.1 21.2 77.1 4.35
M 110.8 4.3
L 105.55 4.3 105.55 20.55 105.55 20.85 110.8 20.85 110.8 20.55 110.8 4.3
M 144.6 20.5
L 144.6 20.05 144.6 3.8 139.25 3.8 139.25 20.05 139.25 20.5 144.6 20.5
M -57.95 24.85
L -56.15 24.85 -56.15 24.75 -56.15 8.55 -62.1 8.55 -62.1 24.85 -57.95 24.85
M 15.4 -12.5
Q 12.831640625 -12.50625 10.25 -12.5
L 10.25 -12.5 10.25 13.55 10.25 13.85 15.4 13.85 15.4 -12.5
M 38.65 -14.4
L 32.35 -14.4 32.35 14.9 37.95 14.9 38.55 14.9 38.65 -14.4 Z"/>

<path fill="#333333" stroke="none" d="
M 211.45 164
L 234.45 164 215.45 112 174 112.35 159.05 112.1 158.45 112.5 158.7 167.7 211.45 167 211.45 164
M -26 112
Q -28.5705078125 125.51015625 -31.15 139 -31.7919921875 142.4015625 -32.45 145.75
L -36.5 168.4 -37 171 -46 169.5 -41.5 144.5 -70.5 139.5 -75 168.5 -72.5 169 -83 218.95 -67.5 221.85 -67.5 219.95 -46 223.45 -40.6 193.6 -40.35 192.3 -39.55 194.5 -38.5 197.45 -16.45 189.55 5.5 181.45 7 181.15 7 181.45 10.5 189.45 25.75 182.55 34.9 178.3 28.5 166.5 51.5 166
Q 51.422265625 164.69921875 51.5 161.6
L 51.5 160 57 160.5 57 112 -26 112
M 73.4 111.6
Q 67.1275390625 109.875 61.5 111.5
L 61.5 167
Q 64.3 166.5 86.35 166.5 97.4 166.45 108.4 166.4
L 114.3 166.5 132.05 166.55
Q 143.6771484375 166.6224609375 154.45 166
L 154.45 111.85
Q 151.6333984375 111.6466796875 148.8 111.5 134.2478515625 110.744921875 119.45 111.5
L 109.75 111.5
Q 109.4986328125 111.5126953125 109.25 111.5 108.9794921875 111.514453125 108.7 111.5
L 98.95 111.55
Q 86.5248046875 110.9974609375 73.4 111.6
M 76.2 97
L 75.8 63.95 75.35 33.5 32.75 32.7 32.75 97 76.2 97
M 165.8 96.15
L 165.8 63.1 166.65 33.5 107.55 33.5 107.55 62.9 107.55 63 107.55 96.15 165.8 96.15
M -28.15 32.65
L -28.15 99.6 16.2 99.6 16.7 63.45 16.7 63.4 17.05 32.65 -28.15 32.65
M 140.5 -108.7
L 133.4 -129.8 17.95 -130.25 2.25 -124.85 3.35 -121.8 0.05 -130.4 -98.45 -97.3 -99 -99 -157 -78.5 -156.45 -76.8 -163 -74 -159 -62 -163.5 -60 -146.5 -12 -68.05 -12.9 -67.5 -33.5 -73.2 -48.75 -73.55 -49.75 -73.35 -49.25 -68.25 -51.2 -60.75 -38.25 -26.85 -38.7 -31.2 -48.7 -16 -53.9 -9.9 -40.4 59.25 -40 59.25 -39.95 141 -39.55
Q 141.55 -39.4 141.45 -39.55
L 152.75 -69.1
Q 151.458203125 -73.4595703125 150.15 -77.85 148.1458984375 -84.3365234375 146.1 -90.85
L 140.45 -108.65 140.5 -108.7 Z"/>

<path fill="#999999" stroke="none" d="
M 142.2 -103.35
L 140.5 -108.7 140.45 -108.65 146.1 -90.85
Q 148.1458984375 -84.3365234375 150.15 -77.85 151.458203125 -73.4595703125 152.75 -69.1
L 141.45 -39.55
Q 141.55 -39.4 141 -39.55
L 59.25 -39.95 59.25 -40 -9.9 -40.4 -16 -53.9 -31.2 -48.7 -26.85 -38.7 -60.75 -38.25 -68.25 -51.2 -73.35 -49.25 -73.2 -48.75 -67.5 -33.5 -68.05 -12.9 10.25 -12.5 10.25 -12.5
Q 12.831640625 -12.50625 15.4 -12.5
L 15.4 13.85 10.25 13.85 10.25 13.55 8.4 13.45 8.4 22.6 8.4 22.85 5.85 22.75 4.3 22.85 4.3 22.7 1.5 22.6 1.5 12.85 -20.05 12.85 -20.05 23.65 -31.35 24.15 -31.35 13.85 -54.5 13.85 -54.5 24.65 -56.15 24.75 -56.15 24.85 -57.95 24.85 -64.25 25.2 -64.25 13.85 -87.9 13.85 -87.9 26.2 -99 26.5 -99 16.5 -116 16.5 -116.5 27.5 -123 29 -76.5 155.5 -73.5 156 -70.5 139.5 -41.5 144.5 -46 169.5 -37 171 -36.5 168.4 -36.5 166 -32.45 145.75
Q -31.7919921875 142.4015625 -31.15 139 -28.5705078125 125.51015625 -26 112
L 57 112 57 160.5 51.5 160 51.5 161.6
Q 51.422265625 164.69921875 51.5 166
L 28.5 166.5 34.9 178.3 35 178.5 25.75 182.55 10.5 189.45 7 181.45 -16.45 189.55 -38.5 197.45 -39.55 194.5
Q -40.0052734375 193.865234375 -40.6 193.6
L -46 223.45
Q 82.8869140625 204.403515625 211.45 167
L 158.7 167.7 158.45 112.5 159.05 112.1 174 112.35 215.45 112 179.3 14.5 165.5 15.15 165.5 9.25 147.5 9.25 147.5 20.05 144.6 20.05 144.6 20.5 139.25 20.5 139.25 20.05 135.7 20.05 135.7 9.75 113.05 9.75 113.05 20.55 110.8 20.55 110.8 20.85 105.55 20.85 105.55 20.55 102.8 20.55 102.8 10.25 79.65 10.25 79.65 21.05 77.1 21.2 77.1 21.3 75.2 21.3 69.9 21.6 69.9 10.8 46.25 10.8 46.25 21.05 44.1 20.45 44.1 21.85 40.4 21.85 40.4 14.95 37.95 14.9 32.35 14.9 32.35 -14.4 38.65 -14.4 174.25 -14.4 164.5 -42.45 187.8 -101.95 141.95 -104.2 142.2 -103.35
M -28.15 99.6
L -28.15 32.65 17.05 32.65 16.7 63.4 16.7 63.45 16.2 99.6 -28.15 99.6
M 165.8 63.1
L 165.8 96.15 107.55 96.15 107.55 63 107.55 62.9 107.55 33.5 166.65 33.5 165.8 63.1
M 75.8 63.95
L 76.2 97 32.75 97 32.75 32.7 75.35 33.5 75.8 63.95
M 61.5 111.5
Q 67.1275390625 109.875 73.4 111.6 86.5248046875 110.9974609375 98.95 111.55
L 108.7 111.5
Q 108.9794921875 111.514453125 109.25 111.5 109.4986328125 111.5126953125 109.75 111.5
L 119.45 111.5
Q 134.2478515625 110.744921875 148.8 111.5
L 154.45 111.5 154.45 111.85 154.45 166
Q 143.6771484375 166.6224609375 132.05 166.55
L 114.3 166.5
Q 89.609375 166.608203125 61.5 167
L 61.5 111.5 Z"/>
</g>

<g id="d_75a_76a_0_Layer0_0_FILL">
<path fill="#BC2231" stroke="none" d="
M 46.05 10.75
L 53 11.15 53.4 -43.35 -41.65 -43.4 -53 17.6 -2.55 16.5 -3.5 34.5 0.85 43.8 27.15 32 19.9 17.65 46 16.9 46.05 10.75 Z"/>
</g>

<g id="d_77a_0_Layer0_0_FILL">
<path fill="#BC2231" stroke="none" d="
M 26.15 31.45
L 25.65 -30.8 -26.8 -31.2 -27.1 32.2
Q -25.7 33.1236328125 -6.65 31.9 12.4 30.6763671875 26.15 31.45 Z"/>
</g>

<g id="d_P7_0_Layer0_0_FILL">
<path fill="#BC2231" stroke="none" d="
M -15.5 -18.95
L -16.5 -19.05 -16.5 19.05 16.5 19.05 16.5 -18.95 -15.5 -18.95 Z"/>
</g>

<g id="d_67_0_Layer0_0_FILL">
<path fill="#BC2231" stroke="none" d="
M -1 -8.75
L -8.45 -5.4 -6.55 0.75 -40.25 13.75 -41.25 14.25 -33.8 28.75 5.2 28.25 0.2 16.75 17.7 10.75 24.7 26.25 41.2 26.75 41.2 -30.6 -3.3 -14 -1 -8.75 Z"/>
</g>

<g id="d_69_0_Layer0_0_FILL">
<path fill="#BC2231" stroke="none" d="
M 9.4 -28
L 9 -16.5 -45.5 -16
Q -45.4 -15.9 -46.5 -15.5
L -54 -15.5 -53.5 28 40.5 27
Q 41.1 27.15 41 27
L 54 -7 30.5 -1.5 21.5 -28 9.4 -28 Z"/>
</g>

<g id="d_P1_0_Layer0_0_FILL">
<path fill="#BC2231" stroke="none" d="
M 25.55 17.4
L 25.55 17.35 26 -18 -26 -18 -26 18 25.55 17.4 Z"/>
</g>

<g id="d_P2_0_Layer0_0_FILL">
<path fill="#BC2231" stroke="none" d="
M 13.5 -20.75
L -13.5 -20.2 -13.5 20.8 12.55 20.8 13.5 -20.75 Z"/>
</g>

<g id="d_P4_0_Layer0_0_FILL">
<path fill="#BC2231" stroke="none" d="
M 24.75 18
L 24.25 -17 -24.75 -17.95 -24.75 18 24.75 18 Z"/>
</g>

<g id="d_P6_0_Layer0_0_FILL">
<path fill="#BC2231" stroke="none" d="
M 34 -17
L -34 -16 -34 16.8 -34 16.9 -33 17 33 17 34 -17 Z"/>
</g>

<g id="d_66_0_Layer0_0_FILL">
<path fill="#BC2231" stroke="none" d="
M 34.4 -31.4
L 26.9 -28.75 18.9 -49.65 -44.6 -26.25 -46 -26.25 -45.35 -24.6 -53.3 -21.1 -48.3 -7.4 -53.8 -5.25 -34.85 48.85 54.9 48.8 55.15 23.95 34.4 -31.4 Z"/>
</g>

<g id="d_T5_0_Layer0_0_FILL">
<path fill="#BC2231" stroke="none" d="
M -7.1 -1
L -4.65 5.6 7.15 0.95 4.8 -5.6 -7.1 -1 Z"/>
</g>

<g id="d_T4_0_Layer0_0_FILL">
<path fill="#BC2231" stroke="none" d="
M -7.3 -1
L -4.7 5.6 7.3 1.05 4.6 -5.6 -7.3 -1 Z"/>
</g>

<g id="d_T6_0_Layer0_0_FILL">
<path fill="#BC2231" stroke="none" d="
M 45.2 174.3
L 45.65 181.05 58.5 179.95 57.8 172.7 45.2 174.3 Z"/>
</g>

<g id="d_68_0_Layer0_0_FILL">
<path fill="#BC2231" stroke="none" d="
M 25.15 -8.1
L 31.7 -8.1
Q 32.65 -8.45 32.55 -8.55
L 79.95 -9 80.4 -21.15 72.15 -20.2 72.35 -43.45 92.1 -43.45 93.45 -30.4 108.25 -35.75 99.75 -61.4 -15.7 -61.85 -31.25 -55.85 -22.4 -32.2 -27.35 -29.95 -25.1 -23.65 -29.15 -21.45 -29.2 28.4 -29.3 28.4 -27.45 28.85 25.6 28.4 25.15 -8.1 Z"/>
</g>

<g id="d_atm_0_Layer0_0_FILL">
<path fill="#BC2231" stroke="none" d="
M -4.25 -4.25
L -4.25 4.25 4.25 4.25 4.25 -4.25 -4.25 -4.25 Z"/>
</g>

<path id="level0_0_Layer3_0_1_STROKES" stroke="#BC2231" stroke-width="1" stroke-linejoin="round" stroke-linecap="round" fill="none" d="
M -129.35 138.95
L -129.05 138.95
M -136.05 141.3
L -136.025 141.3"/>

<path id="level0_0_Layer3_0_2_STROKES" stroke="#BC2231" stroke-width="0.8" stroke-linejoin="round" stroke-linecap="round" fill="none" d="
M -133.75 140.5
L -133.75 141.3
M -129.05 140.5
L -129.35 140.5"/>

<path id="level0_0_Layer3_0_3_STROKES" stroke="#BC2231" stroke-width="0.5" stroke-linejoin="round" stroke-linecap="round" fill="none" d="
M -132.2 140.25
L -132.2 139.75"/>

<path id="level0_0_Layer3_0_4_STROKES" stroke="#000000" stroke-width="1" stroke-linejoin="round" stroke-linecap="round" fill="none" d="
M -130.35 139.75
L -130.35 139.45
M -129.05 140.5
L -129.05 140.25 -129.35 140.25
M -130.35 140.25
L -130.35 139.75
M -129.05 139.6
L -129.05 138.95"/>

<path id="level0_0_Layer3_0_5_STROKES" stroke="#333333" stroke-width="1" stroke-linejoin="round" stroke-linecap="round" fill="none" d="
M -136.025 141.3
L -133.75 141.3
M -129.35 140.25
L -130.35 140.25
M -129.05 138.95
L -127.5 138.95 -127.5 140.5
M -124.75 141.3
L -124.75 142.5 -124.75 152.6 -136.05 152.6 -136.05 141.3
M -129.05 139.6
L -129.05 140.25
M -127.5 140.5
L -129.05 140.5
M -130.05 139.6
L -129.05 139.6
M -124.75 142.5
L -131.5 142.5 -131.5 141.3"/>

<path id="level0_0_Layer3_0_6_STROKES" stroke="#333333" stroke-width="0.8" stroke-linejoin="round" stroke-linecap="round" fill="none" d="
M -129.35 140.5
L -133.75 140.5
M -127.5 140.5
L -123.5 140.5 -123.5 141.3 -124.75 141.3
M -133.75 141.3
L -131.5 141.3 -129.35 141.3 -124.75 141.3"/>

<path id="level0_0_Layer3_0_7_STROKES" stroke="#333333" stroke-width="0.5" stroke-linejoin="round" stroke-linecap="round" fill="none" d="
M -130.35 140.25
L -132.2 140.25
M -132.2 139.75
L -130.35 139.75"/>

<path id="level0_0_Layer2_0_1_STROKES" stroke="#FFFFFF" stroke-width="1" stroke-linejoin="round" stroke-linecap="round" fill="none" d="
M 114.15 -106.7
L 110 -118.05 109.5 -119.475 54.625 -101.15 58 -93.75 94 -93.75 94 -106.25 114.125 -106.7 114.15 -106.7 114.15 -106.625 125.5 -75 129.25 -77.5 135.225 -60.65 136 -58.5 138.25 -58.475 169 -58 169 -52.55 171.45 -52.55 182.4 -20.5
M 114.125 -106.7
L 114.15 -106.625
M -444.4 -89.15
L -429.9 -88.55 -247.25 -88.55 -238.5 -100.45 -241.85 -109.25 -169 -124.5 -155.25 -87.25 -147.85 -84.05 -33.25 -122 92.85 -159.65 109.5 -119.475
M 110 -118.05
L 145.9 -129.25 160.25 -91.25 184.05 -99.4 179.35 -113.15 312.15 -155.9
M 58 -93.75
L 58.5 -84.4 58.5 -84.25 58.7 -73.9 96.5 -73.9
M 58.7 -73.9
L 58.7 -73.4 58.95 -20.5
M 58.5 -84.4
L 51.275 -84.4 58.5 -84.25
M -1.7 -67.3
L 10.25 -35.5 21.7 -39.475 20.9 -41.75 15.875 -55.525
Q 13.672265625 -61.537890625 11.475 -67.55
L 10.825 -69.3 9.975 -71.55 10.025 -71.575 10 -71.6 11.375 -72.05 24.5 -76.425
Q 33.9494140625 -79.591796875 43.4 -82.75
L 48.4 -84.4 51.275 -84.4
M 10.825 -69.3
L 10.025 -71.575 11.375 -72.05
M 21.7 -39.475
L 21.75 -39.5 20.9 -41.75
M 21.75 -39.5
L 22.775 -36.6 23.125 -35.65
Q 23.8064453125 -33.72109375 24.5 -31.8
L 28.7 -19.95 97.35 -19.975 97.15 -61 97 -73.95
M 22.775 -36.6
L 21.7 -39.475
M 97.15 -61
L 115.7 -60.75 135.225 -60.65
M 98.1 -19.95
L 102 -19.95
M 102.525 -19.975
Q 104.171875 -19.98984375 105.825 -20
L 115.7 -20.2 115.7 -60.75
M 115.7 -20.2
L 125.95 -20.025 135.75 -20 135.75 -40.8 138.45 -40.55 138.25 -58.475
M 135.75 -20
L 169.75 -20.25 169.5 -25 158.6 -25.25 158.75 -35 150.175 -35 150.25 -52.5 169 -52.5 169 -52.55
M 105.825 -20
L 125.95 -20.025
M 227.775 -77.075
L 229.025 -77.5
M 226.2 -75.975
L 230 -65.5
Q 235.494921875 -65.5 238.9 -63 240.7625 -61.6212890625 242 -59.5
L 261.75 -62 261.75 -67.75 271.25 -67.75 271.25 -62.25 307.5 -67 307.5 -73 317.75 -73 317.75 -68.25 352.8 -72.075 351.5 -81 232.75 -68 229.775 -77.2 229.6 -77.7 229.025 -77.5
M 226.2 -75.975
L 226 -76.5 227.775 -77.075
M 215.075 -72.125
Q 213.3615234375 -70.89921875 212 -69.525 201.61171875 -58.974609375 212 -39.3 213.36953125 -36.7025390625 215.1 -33.95 217.44375 -30.226953125 220.45 -26.2 221.2513671875 -25.14140625 222.1 -24.05 225.12578125 -20.156640625 228.75 -16
L 228.75 -39.25
Q 226.531640625 -40.058203125 224.75 -41.025 223.2748046875 -41.823828125 222.1 -42.725 221.6421875 -43.079296875 221.225 -43.45 219.5916015625 -44.9224609375 218.675 -46.65 215.601171875 -52.396484375 220.5 -61
L 216.1 -72.475 216 -72.75
Q 215.527734375 -72.44140625 215.075 -72.125 Z
M 226 -54.5
L 226.75 -46.75 235.05 -47.5 234.3 -55.45 226 -54.5 Z
M 228.25 -49.05
L 233 -49.4 233 -53.05
Q 230.25 -52.85 227.95 -52.8 227.9 -49.45 228.25 -49.05 Z
M 169.75 -20.25
Q 169.9349609375 -20.251953125 170.125 -20.25
L 172.7 -20.25
Q 184.4521484375 -20.2328125 195.65 -19 203.9791015625 -18.0900390625 212 -16.5 213.555859375 -16.2060546875 215.1 -15.875 215.1583984375 -15.8625 215.225 -15.85 217.853515625 -15.2884765625 220.45 -14.65 221.2767578125 -14.4576171875 222.1 -14.25 223.3248046875 -13.9306640625 224.55 -13.6 224.908984375 -13.5005859375 225.275 -13.4 235.453125 -10.60703125 245.1 -6.675
L 249.9 -4.65 285.25 2.25 365.35 2.25 366.2 17.2 365.25 122.5 326.5 122.5 283.25 122.5 266 110 273.5 130.25 268 132.75 273.025 145.075 284 139.25 366 131.25
M 303.55 -33.8
L 265.6 -29.45
Q 260.53828125 -27.7943359375 261.3 -22.45 262.716015625 -16.33203125 267.7 -17.35
L 305.25 -17.55
Q 309.339453125 -15.2796875 305.45 -10.95
L 263.15 -10.75
Q 256.4408203125 -11.89296875 255.05 -21.9 254.8595703125 -23.82265625 254.95 -25.5 255.296484375 -32.5921875 260.55 -35.3
L 302.625 -40
Q 308.028515625 -37.8458984375 303.55 -33.8 Z
M 308.975 -54.45
L 309.75 -45 243 -37.25 239.75 -38.75 243.5 -46.5 263 -49 263 -43.5 274 -43.5 274 -50.5 308.975 -54.45 Z
M 322.4 -24.575
L 327.15 -24.9 327.15 -28.55
Q 324.4 -28.3626953125 322.1 -28.3 322.025 -24.975 322.4 -24.575 Z
M 320.15 -30
L 320.9 -22.25 329.2 -23 328.45 -30.95 320.15 -30 Z
M 319.2 -18.3
L 318.85 -11.7 355.05 -12.25 355.25 -18.85 319.2 -18.3 Z
M 319.7 -55.65
L 353.75 -59.5 353.75 -53.75 365.25 -53.75 365.25 -61 369 -61 365.75 -51.25 319.7 -46.75 319.7 -55.65 Z
M 356.1 -28.75
Q 356.1 -26 354.15 -24.05 352.2 -22.1 349.45 -22.1 346.7 -22.1 344.75 -24.05 342.8 -26 342.8 -28.75 342.8 -31.5 344.75 -33.45 346.7 -35.4 349.45 -35.4 352.2 -35.4 354.15 -33.45 356.1 -31.5 356.1 -28.75 Z
M 365.8 -46.6
L 332.05 -42.65 332.8 -37 365.05 -40.55 365.8 -46.6 Z
M 330 -111.25
L 229.6 -77.7
M 365.8 17.3
L 314.5 16 314.5 59 336.5 59 336.5 91.65 336.5 95 329.5 95 329.5 117.75 326.5 117.75 326.5 122.5
M 266 110
L 259.3 92.85 232.9 23.4 235.95 17.55 314.5 16
M 185.35 34.7
L 185 12.35 145.25 12.45 145.25 34.4 185.35 34.7 185.35 46.6 218.65 46.6 229.5 74.5 230.775 77.625 212.75 30.25 185 12.35
M 179.25 92.75
L 174.75 92.75 174.75 98.75 150.5 98.75 150.5 46 174.25 46 174.25 56.75 179.5 56.75 179.25 92.75 Z
M 174.25 56.75
L 165 56.75 165 92.75 174.75 92.75
M 229.5 74.5
L 185.35 74.5 185.35 99.2 239.025 99.2 238.6 98.075 230.775 77.625
M 185.35 46.6
L 185.35 74.5
M 185.35 99.2
L 184.35 126.9 246.4 126.75 246.75 119.5 239.4 100.15 239.025 99.2 239.05 99.2 238.6 98.075
M 239.4 100.15
L 239.05 99.2
M 30.8 172.9
Q 33.4376953125 172.4509765625 36.075 172 53.664453125 169.0025390625 71.25 166
L 174.25 135.75 174 131.25 153.75 130.75 153.75 139.75 143 142.75 73.75 142.25 63.75 145.75 61.5 140 52 143.75 50.75 140 8.15 155.65 11.05 164.35 14.9 175.475 30.8 172.9 15 175.75 14.9 175.475
M -137.8 108.2
L -139.8 114.6 -142.25 125.1 -136.075 141.275
Q -136.068359375 141.2900390625 -136.05 141.3
L -128.425 138.25 -134.75 121.75 -119.25 116.5 -118.125 119.55 -105.25 114.75 -97 138 -75.225 195.125 73.75 170
Q 125.8142578125 156.2630859375 179.5 139.25
L 179.5 136.5 252.75 137 261 158.75
M 153.75 130.75
L 153.75 127 153.75 122.25 179.5 122.25 179.25 106.75 133.25 106.75 133.25 136 59.5 136 59.5 106.75 54.75 106.75 54.75 117.25 -10.75 117.25 -11.05 112 -92.95 112
M -48.6 201.85
L 57.1 184.2 62.75 201.7 67.2 200.225 62.9 185.3 191.65 151.65 192.35 153.75
M 212.3 154.95
L 226.7 152.2
Q 235.265625 151.8978515625 242.45 154.95 245.57109375 157.063671875 249.45 160 256.0333984375 164.97109375 264.8 172.3
M 192.7 153.75
Q 204.4240234375 151.4048828125 210.475 157.125 211.288671875 157.89140625 212 158.8 212.4451171875 159.3732421875 212.85 160 215.0837890625 163.459765625 216.1 168.65 221.0787109375 167.0623046875 225.3 166.5 237.1388671875 164.909375 242.95 171.4 248.2759765625 176.184375 250.925 180 251.794140625 181.25234375 252.375 182.4 255.6482421875 188.8419921875 249.85 192 248.10625 192.948046875 237.1 196.4
L 245.55 222.7
M 261.25 222
Q 258.0728515625 217.75 258 213.5 257.5033203125 202.206640625 262.725 195.2 264.01328125 193.4693359375 265.65 192 268.442578125 189.4947265625 272.25 187.75 288.248828125 183.496484375 297.175 192 298.65703125 193.421875 299.95 195.2 302.130078125 198.21328125 303.75 202.25
L 311.25 221.75
M 365.75 161.75
L 320.5 164.75
Q 315.817578125 165.1224609375 313 167.35 308.571875 170.8765625 308.75 179
L 325.25 222.25
M 273.025 145.075
L 276.25 153
M 145.25 12.45
L 64 12.65 -1.55 15.55 -1.55 35.3 -16.5 35.3 -30.4 35.6 -42.65 35.6 -42.3 37.9 -45.35 37.9 -45.35 37.5 -54.9 37.6 -54.9 45.1 -43.35 45.75 -43 76.25 -42.3 94.25 -54.55 94.25 -55.2 106.45 -83.1 105.9 -92.95 106.15 -94.6 105.2 -94.6 110 -88.85 123.3 -60 124.75 -67.45 168.05 -63.7 168.05 -63.05 177.65 -44 174.15 -41.95 184.55 10 176.15 6.3 166.6 11.05 164.35
M 153.75 127
L 184.35 126.9
M 259.3 92.85
L 336.5 91.65
M -410.65 0.95
L -435.1 0.95 -435.1 -19.95 -410.65 -19.95 -386.2 -19.95 -386.2 0.95 -410.65 0.95 -410.65 -19.95
M -368.5 -19.95
L -344.05 -19.95 -344.05 0.95 -368.5 0.95 -368.5 -19.95 Z
M -276.05 -19.95
L -251.6 -19.95 -251.6 0.95 -276.05 0.95 -300.5 0.95 -300.5 -19.95 -276.05 -19.95 -276.05 0.95
M -443.9 -70.75
L -281.05 -70.2
Q -234.2408203125 -69.2109375 -222.4 -36.45 -218.8263671875 -37.5974609375 -215.25 -38.75 -214.9525390625 -38.8451171875 -214.65 -38.95 -214.4275390625 -39.0201171875 -214.2 -39.1
L -212.85 -39.5 -212.85 -39.525 -210.8 -40.2 -213.55 -39.35 -219.65 -55.05 -203.575 -60.425 -211.75 -81.75 -179.25 -92.75 -168.4 -63.2 -168.375 -63.2 -165.85 -63.9 -164.85 -60.9 -70.85 -92.425 -43.85 -101.6 -45.5 -105.1 -38.15 -107.8 -40.55 -113.3 -36.4 -114.475 -31 -116 -33.25 -122
M -196.475 -44.85
L -196.2 -44.925
Q -196.028515625 -44.9919921875 -195.85 -45.05 -193.7138671875 -45.75078125 -191.575 -46.45
L -165.5 -55 -168.025 -62.15 -168.025 -62.175 -168.4 -63.2
M -168.375 -63.2
L -168.025 -62.175
M -210.8 -40.2
Q -210.46640625 -40.3150390625 -210.125 -40.425 -206.0552734375 -41.75 -201.975 -43.075
L -198.475 -44.2 -197.5 -44.525 -203.575 -60.425
M -197.5 -44.525
L -197.5 -44.5 -196.475 -44.85 -197.5 -44.525 Z
M -198.475 -44.2
L -197.5 -44.5
M -164.85 -60.9
L -154.75 -31.25 -111.925 -45.725 -100.925 -49.475
Q -98.3859375 -50.341796875 -95.85 -51.2
L -95.425 -51.35 -94.15 -51.8 -94.15 -51.775 -75.65 -58.05
Q -73.1578125 -58.898046875 -70.675 -59.75
L -69 -60.325 -62.35 -62.6 -58.95 -63.75 -65.75 -80.9 -63.05 -82.35 -67.8 -93.4 -70.85 -92.425
M -92.95 -20.75
L -94.15 -51.775 -95.425 -51.35
M -154.75 -31.25
L -151.7 -22.8 -147.2 -20.05 -147.025 -19.95 -132 -19.975 -131.35 -38.8
M -112.3 -20.75
L -112.55 -45.5 -111.925 -45.725
M -61.75 -62.25
L -58 -52.5 -43.7 -57.225 -31.8 -61.15 -23.5 -51.75 -23.425 -51.775 -13.55 -55.225 -16.35 -62.7 -36.4 -114.475
M -16.35 -62.7
L -1.775 -67.6
M -75.65 -58.05
L -75.6 -20.1 -54.25 -20.125 -57.6 -20.2 -57.25 -52.15
M -19.6 -42.1
L -19.625 -42.125 -19.625 -42.1 -19.6 -42.1 -19.6 -42.125 -19.625 -42.125
M -19.6 -42.1
L -19.3 -42.225 -19.6 -42.125 -23.425 -51.775
M -19.625 -42.1
L -15.55 -29.9 -21.9 -20.025 -29.8 -20.025 -54.25 -20.125
M -19.3 -42.225
L -10.075 -45.975 -13.55 -55.225
M -43.7 -57.225
L -29.8 -20.025
M -132 -19.975
L -75.6 -20.1
M -344 -19.95
L -319.55 -19.95 -319.55 0.95 -344 0.95 -344 -19.95 Z
M -16.5 35.3
L -16.5 16.1 -30.55 16.6 -30.4 35.6
M -16.5 16.1
L -1.55 15.55
M -45.35 37.5
L -45.325 37.05 -45.3 37.05 -44.8 17.1 -65.05 17.8 -65.4 46.6 -54.9 46.6 -54.9 45.1
M -30.55 16.6
L -44.8 17.1
M -113.3 46.6
L -96.35 46.6 -96.6 18.95 -113.45 19.6 -113.3 46.6 -124.2 46.6 -113 76.25 -43 76.25
M -65.05 17.8
L -82.9 18.45 -83.1 46.6 -65.4 46.6
M -96.35 46.6
L -83.1 46.6
M -82.9 18.45
L -96.6 18.95
M -113.45 19.6
L -130.3 20.2 -133.05 23.1 -124.2 46.6
M -75.225 195.125
L -104.475 200 -104.15 200.85 -132.35 205.8 -148.5 208.25
Q -152 208.270703125 -155.5 208.3
L -254.05 209.5 -254.5 202 -251.8 157.175
Q -254.7193359375 160.865234375 -258.65 163.875 -299.539453125 195.2265625 -449.95 155.75
L -450.45 96
Q -350.0666015625 107.0578125 -253.575 103.875 -252.122265625 103.8259765625 -250.675 103.775 -249.7873046875 103.7326171875 -248.9 103.7
L -248.9 103.75 -248.95 110.15 -222.4 111.1 -218.95 66.25 -218.725 25.575 -218.725 24.25 -218.7 24.25 -201.75 23.35 -200.475 23.275 -200.45 23.275 -200.45 23.3 -172.8 22.5 -168.7 24.85 -162.95 40.25 -161.3 44.65 -156.8 56.8 -150 74.8 -144.2 90.5 -137.95 107.825
M -150 74.8
L -150.2 74.8 -206.75 74.2 -206.75 97.45 -179.7 97.75 -179.7 97.5
M -113 76.25
L -106.85 92.2 -82.4 92.8 -83.1 105.9
M -106.85 92.2
L -104.5 99.5 -94.6 105.2
M -118.125 119.55
L -109.25 143.25
M -139.8 114.6
Q -149.315625 114.3294921875 -161.55 114
L -161.575 162.75 -145 162.75 -145 149.75 -134.05 145.95
Q -135.0541015625 143.6212890625 -136.05 141.3
M -128.425 138.25
L -126.35 143.6 -123.375 151.25 -97 138
M -126.35 143.6
L -134.05 145.95
M -161.575 162.75
L -161.75 162.75 -161.625 188.375 -161.6 188.375 -155.1 188.65 -156.15 202.6 -147.65 202.6 -147.3 200.85 -141.2 199.1 -140.5 202.6 -134.05 201.15 -132.35 205.8
M -161.6 188.375
L -161.6 188.4 -161.625 188.375 -162.5 208.25 -155.5 208.3
M -181.225 23.125
L -180.95 23.1 -181.3 45.75 -177.9 45.625
Q -176.199609375 45.534375 -174.5 45.45
L -174.5 40.25 -162.95 40.25
M -201.75 23.35
L -200.45 23.3 -200.475 23.275
M -181.3 45.75
L -192.6 46.2 -185.35 46.05 -177.9 45.625
M -206.75 74.2
L -206.75 70.75 -205.4 70.75 -204.7 46.6 -204.7 38.8 -199.95 38.8 -199.6 27.45 -195.2 27.45 -195.2 23.95
M -218.7 24.25
L -218.725 25.575
M -179.7 97.75
L -178.9 97.75 -178.2 90.5 -144.2 90.5
M -185.35 46.05
L -185.35 57.35 -156.8 56.8
M -192.6 46.2
L -204.7 46.6
M -276.05 35.3
L -251.6 35.3 -251.6 56.2 -276.05 56.2 -300.5 56.2 -300.5 35.3 -276.05 35.3 -276.05 56.2
M -344 35.3
L -319.55 35.3 -319.55 56.2 -344 56.2 -344 35.3 Z
M -248.9 103.75
L -249.75 121.875 -248.95 110.15
M -251.8 157.175
L -249.75 121.875
M -161.55 114
L -175.7 113.55 -173.7 113.65 -175 201 -175 201.15 -182.45 201.175 -254.5 202
M -178.9 97.75
L -178.9 113.375 -175.7 113.55
M -222.4 111.1
L -178.9 113.375
M -175 201
L -182.45 201.175
M -123.375 151.25
L -104.475 200
M -368.5 35.3
L -344.05 35.3 -344.05 56.2 -368.5 56.2 -368.5 35.3 Z
M -410.65 35.3
L -386.2 35.3 -386.2 56.2 -410.65 56.2 -435.1 56.2 -435.1 35.3 -410.65 35.3 -410.65 56.2"/>

<path id="level1_0_Layer0_0_1_STROKES" stroke="#FFFFFF" stroke-width="1" stroke-linejoin="round" stroke-linecap="round" fill="none" d="
M -202.05 124
L -210.55 126.5 -207.05 136 -198.05 132 -206.55 108.95 -200.05 106.15 -214.9 64.15 -202.55 60.45 -201.55 62.45 -181.05 55.95 -160.4 48.9 -153.45 66.9 -123.05 56.9 -112.5 53.45 -37.5 27.45 -34.5 26.35 -36 22.95 -101.05 -151.7 -80.5 -157.6 -59 -101.3 84 -149.7 100.5 -103.2 125.6 -111.55 126 -111.7 132.1 -94.15
Q 133.1 -91.25 134.15 -88.3 135.55 -84.45 136.95 -80.55
L 137.15 -79.9 184.15 48.95 214 130.75 195.4 153.65
Q -9.55 150.2 -208.55 168
L -207.05 136
M 137.15 -79.9
L 113 -72.2 111 -74.7 78.5 -63.2 88.5 -35.7 65 -26.7 55.5 -53.2 36 -47.7 53.5 -0.7 19.5 10.8 34.5 49.8 49 45.8 48 88.8 66.5 88.8 67 85.3 99 85.3 109 113.3 174.6 110.1
Q 156.2 84.5 158.55 58.45
L 184.15 48.95
M 132.1 -94.15
L 125.6 -111.55
M 183.15 72.7
L 183.9 80.45 192.2 79.7 191.45 71.75 183.15 72.7 Z
M 177.55 54.45
Q 159.6 66.15 176.65 93.25 181.85 101.5 190.3 111.2
L 190.3 87.95
Q 188.1 87.15 186.3 86.2 181.95 83.85 180.25 80.55 177.15 74.8 182.05 66.2
L 177.55 54.45 Z
M 185.4 78.15
L 190.15 77.8 190.15 74.15
Q 187.4 74.35 185.1 74.4 185.05 77.75 185.4 78.15 Z
M 194.35 132.25
Q 183.45 122.1 175.85 111.9 183.8 123.35 194.35 132.25
L 214 130.75
M 174.6 110.1
Q 175.2 111 175.85 111.9
M 4.5 68.45
L 5.3 68.45 -6 72.45 5.5 104.45 17 101.95
M 109 113.3
L 22 113.3 -13.2 18.65 -22.4 22.25 -9.5 55.45 -1 52.45
M -357.05 -127.1
L -329.55 -128.6 -319.05 -105.6 -305.55 -111.6 -296.55 -91.1 -285.55 -95.6 -283.1 -90.7 -304.95 -136.85 -358.05 -136.6 -357.55 -115.1 -354.05 -115.1 -352.05 -71.05 -355.55 -69.55 -351.05 -25.05 -318.05 -26.55 -227.05 -49.55 -229.05 -57.05 -263.55 -137.1 -304.95 -136.85
M -326.05 -26.55
L -326.05 -33.55 -330.55 -33.55 -330.55 -50.55 -352.55 -49.55
M -246 -94
L -276.05 -75.95 -271.55 -66.55 -297.05 -56.05 -287.55 -34.55
M -283.1 -90.7
L -276.05 -75.95
M -36 22.95
L -14.3 15.75 -41.9 -57.55
Q -48.25 -73.95 -54.65 -90.4
L -59 -101.3
M -13.2 18.65
L -14.3 15.75
M -16.75 84.25
L -13 95.8 -26 100.8 -22 109.8 -32.1 113.6 -9 105.45 -16.75 84.25 -37.5 27.45
M -153.45 66.9
L -135.45 113.8 -83 113.3 -95 78.5 -98 69.8 -106 72.3 -112.5 53.45
M -123.05 56.9
L -116 76.8 -145.55 86
M -181.05 55.95
L -155 126.5 -149 132.5 194.35 132.25
M -32.1 113.6
L -35.5 114.8 -53.5 113.8 -83 113.3
M -53.5 113.8
L -58.85 99.75 -58.8 99.75 -70 70.3 -95 78.5
M -58.8 99.75
L -16.75 84.25
M -200.05 106.15
L -199.05 108.95 -166.05 97.45"/>

<path id="level2_0_Layer0_0_1_STROKES" stroke="#FFFFFF" stroke-width="1" stroke-linejoin="round" stroke-linecap="round" fill="none" d="
M 140.55 -89.6
L 152.65 -93.5 123 -166.8 14.9 -133.9 29.8 -98 58.1 -106 58.1 -92.4 78.1 -92.2 78.35 -83.8 53.1 -83.1 53.45 -74.6 96.05 -74.45 97 -84.55 116.9 -84.8 117.65 -98.6 133.8 -104.45 143 -81.85 125.9 -40.5 -11.55 -40.25 -15.05 -47.9 -41.15 -39.4 -128.95 -39.65 -139.95 -67.2 -135.5 -68.5 -134.75 -66.85 -119.95 -71.2 -123.85 -81.475 -95.9 -91.3 -75.65 -97.85 -56.45 -104.025 -38.575 -109.775 -39.8 -113.025
Q -40.0142578125 -113.561328125 -40.225 -114.1 -41.078125 -116.266796875 -41.925 -118.425
L -41.95 -118.5 -39.45 -119.5 -18.8 -125.95 -18.025 -124.125 14.55 -133.9
M 249.2 -138.1
L 237.3 -117.15 154 -91.05 152.65 -93.5
M -135 -26
L -119 -26 -119.05 -24.95 153 -24 142 -46 158 -87 242 -113 254 -136
M 276 -127
L 261 -97 208.825 -81.2 220.95 -77 225.675 -78.45 325.45 -109
M 361.8 -74.3
L 348.85 -72.875
Q 347.199609375 -72.684375 346.65 -72.625 330.22890625 -70.837109375 313.8 -69.05
L 313.8 -73.8 303.55 -73.8 303.55 -67.8 267.3 -63.05 267.3 -68.55 257.8 -68.55 257.8 -62.8 238.05 -60.3
Q 236.8 -62.4 234.95 -63.8 231.55 -66.3 225.85 -66.2
L 220.95 -77 211.35 -74.15 216.45 -62
Q 209.0216796875 -54.9060546875 213.35 -48.4 216.751953125 -41.8884765625 224.7 -41.9
L 224.7 -21.5 247.7 -9.65 236.1 -38.825 235.8 -39.55 239.55 -47.3 259.05 -49.8 259.05 -44.3 270.05 -44.3 270.05 -51.3 305.05 -55.25 305.8 -45.8 239.05 -38.05 236.1 -38.825
M 224.3 -52.75
L 229.05 -53.1 229.05 -56.75
Q 226.3 -56.55 224 -56.5 223.95 -53.15 224.3 -52.75 Z
M 222.05 -58.2
L 222.8 -50.45 231.1 -51.2 230.35 -59.15 222.05 -58.2 Z
M 225.675 -78.45
L 228.8 -68.8 347.55 -81.8 348.85 -72.875
M 224.7 -21.5
Q 213.7779296875 -28.1583984375 207.35 -44 196.6291015625 -61.81484375 211.35 -74.15
M 299.6 -34.6
L 261.65 -30.25
Q 256.6 -28.6 257.35 -23.25 258.75 -17.15 263.75 -18.15
L 301.3 -18.35
Q 305.4 -16.1 301.5 -11.75
L 259.2 -11.55
Q 252.5 -12.7 251.1 -22.7 250.9 -24.6 251 -26.3 251.35 -33.4 256.6 -36.1
L 298.7 -40.8
Q 304.1 -38.65 299.6 -34.6 Z
M 318.45 -25.35
L 323.2 -25.7 323.2 -29.35
Q 320.45 -29.15 318.15 -29.1 318.1 -25.75 318.45 -25.35 Z
M 315.25 -19.1
L 314.9 -12.5 351.1 -13.05 351.3 -19.65 315.25 -19.1 Z
M 316.2 -30.8
L 316.95 -23.05 325.25 -23.8 324.5 -31.75 316.2 -30.8 Z
M 315.75 -56.45
L 349.8 -60.3 349.8 -54.55 361.3 -54.55 361.3 -61.8 365.05 -61.8 361.8 -52.05 315.75 -47.55 315.75 -56.45 Z
M 361.85 -47.4
L 328.1 -43.45 328.85 -37.8 361.1 -41.35 361.85 -47.4 Z
M 352.15 -31.15
Q 352.15 -28.4 350.2 -26.45 348.25 -24.5 345.5 -24.5 342.75 -24.5 340.8 -26.45 338.85 -28.4 338.85 -31.15 338.85 -33.9 340.8 -35.85 342.75 -37.8 345.5 -37.8 348.25 -37.8 350.2 -35.85 352.15 -33.9 352.15 -31.15 Z
M 355.35 -6.05
L 247.7 -9.65
M 304.8 29.2
L 304.8 32.8 324 32.8 324 28.8 304.8 28.8
M 340.4 48.4
L -163.95 48.4 -163.95 22.8
Q 86.87421875 10.095703125 340.8 16
L 340.4 48.4 Z
M 326.4 87.55
L 326.4 83.15 305.2 83.15 305.25 87.55 326.4 87.55 Z
M 341.2 101.15
Q 89.6091796875 108.312109375 -163.55 91.95
L -163.55 70.4 340 70.4 341.2 101.15 Z
M 275.6 29.6
L 275.6 32.8 294.4 32.8 294.4 28.8 275.6 28.8
M 240.8 25.6
L 240.8 37.2 268.8 37.2 268.8 25.6 240.8 25.6 Z
M 240.4 80.4
L 240.4 92.75 269.6 92.75 269.6 80.4 240.4 80.4 Z
M 274.8 88.75
L 274.8 84.35 295.2 84.35 295.2 88.75 274.8 88.75 Z
M 172 30.4
L 172 36.8 207.2 36.8 207.2 30.4 172 30.4 Z
M 172 85.95
L 172 91.55 207.2 91.55 207.2 85.95 172 85.95 Z
M -221.55 104.35
L -138.15 109.9 -120.875 111.05 -117.9 111.25 -106.375 112.025 -71.55 114.35 -71.55 118.75 -57.65 118.75 208 118.75 208 123.15 241.2 123.15 241.2 118.35 342 118.35
M 101.6 24.4
L 101.6 36.8 154.8 36.8 154.8 24.8 101.6 24.4 Z
M 102 91.55
L 155.2 91.55 155.2 81.2 102 81.25 102 91.55 Z
M 54 25.2
L 54 39.2 67.2 39.2 67.2 24.4 54 25.2 Z
M -16.8 26
L -16.8 35.6 14.8 35.6 14.8 26.4 -16.8 26 Z
M -17.95 80.8
L 14 80.8 14 90.75 -17.95 90.75 -17.95 80.8 Z
M 54 78.8
L 54 91.15 67.2 91.15 67.2 78.4 54 78.8 Z
M -149.65 196.15
L -49.525 179.9
Q -47.9294921875 179.6486328125 -46.325 179.4 1.8419921875 171.6767578125 50 163.95
L 58 179.95 62 174.75 58 165.15 204.8 129.55
M -75.65 -97.85
L -68.95 -82.5 -73.45 -74.5 -70.95 -69.5 -55.95 -75.1 -44.45 -79.5 -47.45 -87.5 -50.45 -88 -56.45 -104 -56.45 -104.025
M -18.025 -124.125
L -18.05 -124.125 -17.525 -122.925 -18.025 -124.125 Z
M -38.575 -109.775
L -38.5 -109.8 -39.8 -113.025
M -17.525 -122.925
Q -13.766796875 -113.9626953125 -10 -105
L -3.5 -106.5 0.5 -98.5 -12 -93.5 -14.45 -99.5 -32.55 -94 -38.5 -109.8
M -56.45 -104
L -38.55 -109.75 -15.05 -47.9
M -67.95 -63
L -53.575 -67.5 -56.7 -74.8 -55.95 -75.1
M -53.575 -67.5
L -50.775 -68.35
Q -46.615625 -69.6787109375 -42.45 -71
L -37.95 -62.5 -63.45 -54.5 -67.45 -62.5
M -50.775 -68.35
L -53.55 -67.45 -53.575 -67.5
M -41.15 -39.4
L -49.7 -58.3
M -219.15 6.8
Q -179.116015625 3.9787109375 -138.675 1.85
L -168 -71 -154 -76 -125.3 1.15
Q 101.30625 -10.1537109375 340.8 0
M -94.35 28.4
L -94.35 35.6 -63.55 35.6 -63.55 27.6 -94.35 28.4 Z
M -92.75 81.2
L -62.35 81.2 -62.35 87.15 -93.55 87.15 -92.75 81.2 Z
M -143.95 32.4
L -123.95 32.4 -123.95 36.4 -143.95 36.4 -143.95 32.4 Z
M -138.675 1.85
Q -131.9876953125 1.484765625 -125.3 1.15
M -179.95 107.55
L -181.55 168.35 -166.75 168.35 -166.75 182.725 -166.675 182.725 -166.65 182.725 -133.95 172.75 -151.05 132.5 -158.75 114.35 -179.55 114.35
M -120.875 111.05
L -99.15 164.35 -113.15 169.15 -135.875 115.325 -144.225 117.95 -139.8 128.65 -151.05 132.5
M -138.15 109.9
L -135.875 115.325
M -155.3 121.4
L -144.225 117.95
M -117.9 111.25
L -97.15 162.35 -86.75 158.75 -87.25 157.575 -90.25 150.425 -106.375 112.025
M -90.25 150.425
L -82.35 147.15 -79.15 154.35 -87.25 157.575
M -57.65 118.75
L -63.15 160.95 -79.15 157.95 -71.55 119.15
M -166.75 182.725
L -166.75 182.75 -166.675 182.725
M -119.05 -24.95
L -120 0"/>

<path id="d_T5_0_Layer0_0_1_STROKES" stroke="#782231" stroke-width="1" stroke-linejoin="round" stroke-linecap="round" fill="none" d="
M -7.1 -1
L 4.8 -5.6 7.15 0.95 -4.65 5.6 -7.1 -1 Z"/>

<path id="d_T4_0_Layer0_0_1_STROKES" stroke="#782231" stroke-width="1" stroke-linejoin="round" stroke-linecap="round" fill="none" d="
M -7.3 -1
L 4.6 -5.6 7.3 1.05 -4.7 5.6 -7.3 -1 Z"/>

<path id="d_T6_0_Layer0_0_1_STROKES" stroke="#782231" stroke-width="1" stroke-linejoin="round" stroke-linecap="round" fill="none" d="
M -7.130500793457031 -0.7868576049804403
L 4.62609405517577 -5.593275451660162 7.178574371337874 1.2285331726074276 -4.948904418945318 5.616688537597668 -7.130500793457031 -0.7868576049804403 Z"/>

<path id="level3_0_Layer0_0_1_STROKES" stroke="#666666" stroke-width="1" stroke-linejoin="round" stroke-linecap="round" fill="none" d="
M -67.5 -12.5
L 10.25 -12.5 15.4 -12.5 15.4 13.85 10.25 13.85 10.25 -12.5
M 38.6 -8.9
L 38.55 -14.4 32.35 -14.4 32.35 14.9 38.55 14.9 38.6 -8.9 38.65 -14.4 38.55 -14.4
M 38.65 -14.4
L 174.25 -14.4 174.225 -14.5
M 147.5 20.05
L 147.5 9.25 165.5 9.25 165.5 15.15 179.3 14.5
M 165.5 15.15
L 165.5 21.05
M 144.6 20.5
L 139.25 20.5 139.25 3.8 144.6 3.8 144.6 20.1
M 113.05 20.55
L 113.05 9.75 135.7 9.75 135.7 20.05
M 105.55 20.85
L 105.55 4.3 110.8 4.3 110.8 20.85 105.55 20.85 Z
M 79.65 21.05
L 79.65 10.25 102.8 10.25 102.8 20.55
M 77.1 21.65
L 77.1 21.3 72 21.3 72 4.35 77.1 4.35 77.1 21.3
M 46.25 21.05
L 46.25 10.8 69.9 10.8 69.9 21.6
M 40.4 21.85
L 40.4 5.65 44.1 5.65 44.1 21.65 40.4 21.85 Z
M 8.4 22.85
L 4.3 22.85 4.3 6.5 8.4 6.5 8.4 22.6
M -20.05 23.65
L -20.05 12.85 1.5 12.85 1.5 22.6
M -146.65 -12.45
L -147.375 -14.5
M -28.35 23.7
L -28.35 7.15 -23.25 7.15 -23.25 23.7 -28.35 23.7 Z
M -54.5 24.65
L -54.5 13.85 -31.35 13.85 -31.35 24.15
M -62.1 24.85
L -62.1 8.55 -56.15 8.55 -56.15 24.85 -62.1 24.85 Z
M -87.9 26.2
L -87.9 13.85 -64.25 13.85 -64.25 25.2
M -116 27
L -116 16.5 -99 16.5 -99 26.5
M -96.15 9.25
L -96.15 26.2 -90.15 26.05 -90.15 9.25 -96.15 9.25 Z
M -123 29
L -116.5 27.5"/>

<path id="level3_0_Layer0_0_2_STROKES" stroke="#FFFFFF" stroke-width="1" stroke-linejoin="round" stroke-linecap="round" fill="none" d="
M -147.375 -14.5
L -163.5 -60 -159 -62 -163 -74 -156.45 -76.8 -157 -78.5 -99 -99 -98.375 -97.35 0.05 -130.4 2.4 -124.25 17.95 -130.25 133.4 -129.8 140.475 -108.65 141.95 -104.2 141.875 -104.175 150.175 -77.825
Q 151.458203125 -73.4595703125 152.75 -69.1
L 141.45 -39.55 -9.9 -40.4 -16 -53.9 -31.2 -48.7 -26.85 -38.7 -60.75 -38.25 -68.25 -51.2 -73.375 -49.25 -67.5 -33.5 -67.5 -12.5
M 140.475 -108.65
L 140.45 -108.65 141.875 -104.175 127.1 -98.8 125.75 -111.85 106 -111.85 106 -89.55 114.05 -89.55 113.95 -87.4 124.5 -87.4 132.3 -64.35 152.75 -69.1
M -68.25 -51.2
L -37.75 -62.85 -39.55 -68.25 -32.8 -70.95 -34.6 -75.45 8.55 -92.05 6.3 -98.35 11.25 -100.6
Q 7.85625 -109.68671875 4.475 -118.775 3.9091796875 -120.290234375 3.35 -121.8
L 2.4 -124.25
M 174.225 -14.5
L 164.5 -42.45 187.85 -101.95
M 179.3 14.5
L 215.45 112 234.45 164 211.45 164 211.45 167 158.45 167.5 158.45 112.5 215.45 112
M 107.55 33.5
L 107.55 96.15 165.8 96.15 166.65 33.5 107.55 33.5 Z
M 32.75 32.7
L 32.75 97 76.2 97 75.35 33.5 32.75 32.7 Z
M 7 181.45
L 10.5 189.45 34.875 178.275 28.5 166.5 51.5 166 51.5 160.5 57 160.5
M -58 169
L -72.1 166.475 -72.6 168.975 -82.525 219.025 -67.5 221.85 -67 220.05 -67.025 220.025 -66.825 218.975 -57 168 -36.6 171.475 -40.325 192 -38.5 197.45 7.025 181.125 7.5 166 -36.025 166 -36.1 166.35 -37 171
M 61.5 111.5
L 61.5 167 154.45 166 154.45 111.5 61.5 111
M 57 160
L 57 112 -26 112 -36.025 166
M -28.15 32.65
L -28.15 99.6 16.2 99.6 17.05 32.65 -28.15 32.65 Z
M -98.375 -97.35
L -92 -80.7 -86 -83 -73.375 -49.25
M -67.5 -12.5
L -146.65 -12.45
M -46 169.5
L -41.5 144.5 -70.5 139.5 -75 168.5 -72.6 168.975
M -73.5 156
L -76.5 155.5 -123 29
M -40.325 192
L -46 223.45 -67 220.025 -67 220.05
M -67.025 220.025
L -67 220.025 -66.825 218.975"/>

<path id="d_atm_0_Layer0_0_1_STROKES" stroke="#FFFFFF" stroke-width="1" stroke-linejoin="round" stroke-linecap="round" fill="none" d="
M -4.25 -4.25
L 4.25 -4.25 4.25 4.25 -4.25 4.25 -4.25 -4.25 Z"/>
</defs>

<g filter="url(#Filter_1)" transform="matrix( 1, 0, 0, 1, 0,0) ">
<g id="level0" transform="matrix( 0.998565673828125, 0.009002685546875, -0.1617431640625, 0.99993896484375, 4.5,0) ">
<g id="map" transform="matrix( 1, 0, 0, 1, 0,0) ">
<g transform="matrix( 1, 0, 0, 1, 0,0) ">
<use xlink:href="#level0_0_Layer3_0_FILL"/>

<use xlink:href="#level0_0_Layer3_0_1_STROKES"/>

<use xlink:href="#level0_0_Layer3_0_2_STROKES"/>

<use xlink:href="#level0_0_Layer3_0_3_STROKES"/>

<use xlink:href="#level0_0_Layer3_0_4_STROKES"/>

<use xlink:href="#level0_0_Layer3_0_5_STROKES"/>

<use xlink:href="#level0_0_Layer3_0_6_STROKES"/>

<use xlink:href="#level0_0_Layer3_0_7_STROKES"/>
</g>

<g transform="matrix( 1, 0, 0, 1, -57.3,-80.25) ">
<g transform="matrix( 1, 0, 0, 1, 0,0) ">
<use filter="url(#Filter_2)" xlink:href="#Symbol_8_0_Layer0_0_FILL"/>
</g>
</g>

<g transform="matrix( 1, 0, 0, 1, 0,0) ">
<use xlink:href="#level0_0_Layer2_0_FILL"/>

<use xlink:href="#level0_0_Layer2_0_1_STROKES"/>
</g>

<g id="d_10" transform="matrix( 1.3591156005859375, 0, 0, 1.16192626953125, -209.4,-50.15) "/>

<g id="d_11" transform="matrix( 1.3591156005859375, 0, 0, 1.16192626953125, -111.9,-62.05) ">
<g transform="matrix( 1, 0, 0, 1, 0,0) ">
<use xlink:href="#d_11_0_Layer0_0_FILL"/>
</g>
</g>

<g id="d_12" transform="matrix( 1.3591156005859375, 0, 0, 1.16192626953125, -142.9,-29.2) ">
<g transform="matrix( 1, 0, 0, 1, 0,0) ">
<use xlink:href="#d_12_0_Layer0_0_FILL"/>
</g>
</g>

<g id="d_12b" transform="matrix( 1.3591156005859375, 0, 0, 1.16192626953125, -122.2,-32.85) ">
<g transform="matrix( 1, 0, 0, 1, 0,0) ">
<use xlink:href="#d_12b_0_Layer0_0_FILL"/>
</g>
</g>

<g id="d_14" transform="matrix( 1.3591156005859375, 0, 0, 1.16192626953125, -102.8,-36.3) ">
<g transform="matrix( 1, 0, 0, 1, 0,0) ">
<use xlink:href="#d_14_0_Layer0_0_FILL"/>
</g>
</g>

<g id="d_15" transform="matrix( 1.3591156005859375, 0, 0, 1.16192626953125, -85.15,-39.15) ">
<g transform="matrix( 1, 0, 0, 1, -44.5,95.3) ">
<use xlink:href="#d_15_0_Layer0_0_FILL"/>
</g>
</g>

<g id="d_16" transform="matrix( 1.3591156005859375, 0, 0, 1.16192626953125, -66.5,-41.4) ">
<g transform="matrix( 1, 0, 0, 1, 0,0) ">
<use xlink:href="#d_16_0_Layer0_0_FILL"/>
</g>
</g>

<g id="d_17" transform="matrix( 1.3591156005859375, 0, 0, 1.16192626953125, -43.75,-38.5) "/>

<g id="d_18" transform="matrix( 1.3591156005859375, 0, 0, 1.16192626953125, -29.8,-40.25) ">
<g transform="matrix( 1, 0, 0, 1, 0,0) ">
<use xlink:href="#d_18_0_Layer0_0_FILL"/>
</g>
</g>

<g id="d_19a" transform="matrix( 1.3591156005859375, 0, 0, 1.16192626953125, 34.45,-52.3) ">
<g transform="matrix( 1, 0, 0, 1, 0,0) ">
<use xlink:href="#d_19a_0_Layer0_0_FILL"/>
</g>
</g>

<g id="d_20_21" transform="matrix( 1.3591156005859375, 0, 0, 1.16192626953125, 78,-46.9) ">
<g transform="matrix( 1, 0, 0, 1, -164.5,102) ">
<use xlink:href="#d_20_21_0_Layer0_0_FILL"/>
</g>
</g>

<g id="d_22a" transform="matrix( 1.3591156005859375, 0, 0, 1.16192626953125, 106.35,-40.45) ">
<g transform="matrix( 1, 0, 0, 1, 0,0) ">
<use xlink:href="#d_22a_0_Layer0_0_FILL"/>
</g>
</g>

<g id="d_23a" transform="matrix( 1.3591156005859375, 0, 0, 1.16192626953125, 126.9,-40.25) ">
<g transform="matrix( 1, 0, 0, 1, -200.5,96.25) ">
<use xlink:href="#d_23a_0_Layer0_0_FILL"/>
</g>
</g>

<g id="d_24" transform="matrix( 1.3591156005859375, 0, 0, 1.16192626953125, -192.85,34.85) ">
<g transform="matrix( 1, 0, 0, 1, 0,0) ">
<use xlink:href="#d_24_0_Layer0_0_FILL"/>
</g>
</g>

<g id="d_25a" transform="matrix( 1.3591156005859375, 0, 0, 1.16192626953125, -172.15,34.15) ">
<g transform="matrix( 1, 0, 0, 1, 0,0) ">
<use xlink:href="#d_25a_0_Layer0_0_FILL"/>
</g>
</g>

<g id="d_26b" transform="matrix( 1.3591156005859375, 0, 0, 1.16192626953125, -178.55,60.45) ">
<g transform="matrix( 1, 0, 0, 1, 0,0) ">
<use xlink:href="#d_26b_0_Layer0_0_FILL"/>
</g>
</g>

<g id="d_27" transform="matrix( 1.3591156005859375, 0, 0, 1.16192626953125, -175.85,85.9) ">
<g transform="matrix( 1, 0, 0, 1, 22.25,-12.35) ">
<use xlink:href="#d_27_0_Layer0_0_FILL"/>
</g>
</g>

<g id="d_28" transform="matrix( 1.3591156005859375, 0, 0, 1.16192626953125, -158.25,102.45) ">
<g transform="matrix( 1, 0, 0, 1, 0,0) ">
<use xlink:href="#d_28_0_Layer0_0_FILL"/>
</g>
</g>

<g id="d_26a" transform="matrix( 1.3591156005859375, 0, 0, 1.16192626953125, -171.55,48.8) ">
<g transform="matrix( 1, 0, 0, 1, 0,0) ">
<use xlink:href="#d_26a_0_Layer0_0_FILL"/>
</g>
</g>

<g id="d_29" transform="matrix( 1.3591156005859375, 0, 0, 1.16192626953125, -147.95,138.95) ">
<g transform="matrix( 1, 0, 0, 1, 0,0) ">
<use xlink:href="#d_29_0_Layer0_0_FILL"/>
</g>
</g>

<g id="d_39a" transform="matrix( 1.3591156005859375, 0, 0, 1.16192626953125, -94.6,99.2) ">
<g transform="matrix( 1, 0, 0, 1, -37.5,-23.75) ">
<use xlink:href="#d_39a_0_Layer0_0_FILL"/>
</g>
</g>

<g id="d_41000" transform="matrix( 1.3591156005859375, 0, 0, 1.16192626953125, -214.15,156.9) ">
<g transform="matrix( 1, 0, 0, 1, 0,0) ">
<use xlink:href="#d_41000_0_Layer0_0_FILL"/>
</g>
</g>

<g id="d_47a" transform="matrix( 1.3591156005859375, 0, 0, 1.16192626953125, 284.65,55.2) ">
<g transform="matrix( 1, 0, 0, 1, 0,0) ">
<use xlink:href="#d_47a_0_Layer0_0_FILL"/>
</g>
</g>

<g id="d_49a" transform="matrix( 1.3591156005859375, 0, 0, 1.16192626953125, 297.9,107.4) ">
<g transform="matrix( 1, 0, 0, 1, 0,0) ">
<use xlink:href="#d_49a_0_Layer0_0_FILL"/>
</g>
</g>

<g id="d_1_2" transform="matrix( 1.3591156005859375, 0, 0, 1.16192626953125, -410.7,-9.45) ">
<g transform="matrix( 1, 0, 0, 1, 0,0) ">
<use xlink:href="#d_1_2_0_Layer0_0_FILL"/>
</g>

<g transform="matrix( 1, 0, 0, 1, 0,0) ">
<use xlink:href="#d_1_2_0_Layer0_1_FILL"/>
</g>
</g>

<g id="d_3" transform="matrix( 1.3591156005859375, 0, 0, 1.16192626953125, -356.3,-9.45) ">
<g transform="matrix( 1, 0, 0, 1, 0,0) ">
<use xlink:href="#d_3_0_Layer0_0_FILL"/>
</g>
</g>

<g id="d_4" transform="matrix( 1.3591156005859375, 0, 0, 1.16192626953125, -331.8,-9.45) ">
<g transform="matrix( 1, 0, 0, 1, 0,0) ">
<use xlink:href="#d_4_0_Layer0_0_FILL"/>
</g>
</g>

<g id="d_5" transform="matrix( 1.3591156005859375, 0, 0, 1.16192626953125, -276.15,-9.45) ">
<g transform="matrix( 1, 0, 0, 1, 0,0) ">
<use xlink:href="#d_5_0_Layer0_0_FILL"/>
</g>

<g transform="matrix( 1, 0, 0, 1, 0,0) ">
<use xlink:href="#d_5_0_Layer0_1_FILL"/>
</g>
</g>

<g id="d_6" transform="matrix( 1.3591156005859375, 0, 0, 1.16192626953125, -410.7,45.75) ">
<g transform="matrix( 1, 0, 0, 1, 185,83.95) ">
<use xlink:href="#d_6_0_Layer0_0_FILL"/>
</g>

<g transform="matrix( 1, 0, 0, 1, 0,0) ">
<use xlink:href="#d_6_0_Layer0_1_FILL"/>
</g>
</g>

<g id="d_7" transform="matrix( 1.3591156005859375, 0, 0, 1.16192626953125, -344,45.75) ">
<g transform="matrix( 1, 0, 0, 1, 0,0) ">
<use xlink:href="#d_7_0_Layer0_0_FILL"/>
</g>

<g transform="matrix( 1, 0, 0, 1, 203,83.95) ">
<use xlink:href="#d_7_0_Layer0_1_FILL"/>
</g>
</g>

<g id="d_8_9" transform="matrix( 1.3591156005859375, 0, 0, 1.16192626953125, -276.15,45.75) ">
<g transform="matrix( 1, 0, 0, 1, 0,0) ">
<use xlink:href="#d_8_9_0_Layer0_0_FILL"/>
</g>

<g transform="matrix( 1, 0, 0, 1, 0,0) ">
<use xlink:href="#d_8_9_0_Layer0_1_FILL"/>
</g>
</g>

<g id="d_BUS" transform="matrix( 1, 0, 0, 1, -349.45,128.75) ">
<g transform="matrix( 1, 0, 0, 1, 0,0) ">
<use xlink:href="#d_BUS_0_Layer0_0_FILL"/>
</g>
</g>

<g id="d_41" transform="matrix( 1, 0, 0, 1, -40.4,-51.25) ">
<g transform="matrix( 1, 0, 0, 1, 0,0) ">
<use xlink:href="#d_41_0_Layer0_0_FILL"/>
</g>
</g>

<g id="d_T3" transform="matrix( 1.3591156005859375, 0, 0, 1.16192626953125, -105.3,157.45) ">
<g transform="matrix( 1, 0, 0, 1, 0,0) ">
<use xlink:href="#d_T3_0_Layer0_0_FILL"/>
</g>
</g>

<g id="d_T2" transform="matrix( 1.3591156005859375, 0, 0, 1.16192626953125, -98.35,174.35) ">
<g transform="matrix( 1, 0, 0, 1, 0,0) ">
<use xlink:href="#d_T2_0_Layer0_0_FILL"/>
</g>
</g>

<g id="d_T1" transform="matrix( 1.3591156005859375, 0, 0, 1.16192626953125, -93.1,187.9) ">
<g transform="matrix( 1, 0, 0, 1, -40.5,-102.25) ">
<use xlink:href="#d_T1_0_Layer0_0_FILL"/>
</g>
</g>

<g id="d_42" transform="matrix( 1.3591156005859375, 0, 0, 1.16192626953125, 165.3,23.55) ">
<g transform="matrix( 1, 0, 0, 1, 0,0) ">
<use xlink:href="#d_42_0_Layer0_0_FILL"/>
</g>
</g>

<g id="d_30" transform="matrix( 1.3591156005859375, 0, 0, 1.16192626953125, -123.2,33.25) ">
<g transform="matrix( 1, 0, 0, 1, 0,0) ">
<use xlink:href="#d_30_0_Layer0_0_FILL"/>
</g>
</g>

<g id="d_31a" transform="matrix( 1.3591156005859375, 0, 0, 1.16192626953125, -104.85,32.95) ">
<g transform="matrix( 1, 0, 0, 1, 0,0) ">
<use xlink:href="#d_31a_0_Layer0_0_FILL"/>
</g>
</g>

<g id="d_31b" transform="matrix( 1.3591156005859375, 0, 0, 1.16192626953125, -89.75,32.6) ">
<g transform="matrix( 1, 0, 0, 1, -41.1,33.5) ">
<use xlink:href="#d_31b_0_Layer0_0_FILL"/>
</g>
</g>

<g id="d_32" transform="matrix( 1.3591156005859375, 0, 0, 1.16192626953125, -74.05,32.35) ">
<g transform="matrix( 1, 0, 0, 1, 0,0) ">
<use xlink:href="#d_32_0_Layer0_0_FILL"/>
</g>
</g>

<g id="d_33" transform="matrix( 1.3591156005859375, 0, 0, 1.16192626953125, -55.1,32.05) ">
<g transform="matrix( 1, 0, 0, 1, -66.55,34.05) ">
<use xlink:href="#d_33_0_Layer0_0_FILL"/>
</g>
</g>

<g id="d_34" transform="matrix( 1.3591156005859375, 0, 0, 1.16192626953125, -37.85,27.25) ">
<g transform="matrix( 1, 0, 0, 1, -79.25,38.15) ">
<use xlink:href="#d_34_0_Layer0_0_FILL"/>
</g>
</g>

<g id="d_35" transform="matrix( 1.3591156005859375, 0, 0, 1.16192626953125, -23.55,25.9) ">
<g transform="matrix( 1, 0, 0, 1, 0,0) ">
<use xlink:href="#d_35_0_Layer0_0_FILL"/>
</g>
</g>

<g id="d_36" transform="matrix( 1.3591156005859375, 0, 0, 1.16192626953125, -9,25.35) ">
<g transform="matrix( 1, 0, 0, 1, 0,0) ">
<use xlink:href="#d_36_0_Layer0_0_FILL"/>
</g>
</g>

<g id="d_37" transform="matrix( 1.3591156005859375, 0, 0, 1.16192626953125, -83.65,60.65) ">
<g transform="matrix( 1, 0, 0, 1, 0,0) ">
<use xlink:href="#d_37_0_Layer0_0_FILL"/>
</g>
</g>

<g id="d_38" transform="matrix( 1.3591156005859375, 0, 0, 1.16192626953125, -77.7,91.35) ">
<g transform="matrix( 1, 0, 0, 1, -50,-17) ">
<use xlink:href="#d_38_0_Layer0_0_FILL"/>
</g>
</g>

<g id="d_40" transform="matrix( 1.3591156005859375, 0, 0, 1.16192626953125, -41.95,148.25) ">
<g transform="matrix( 1, 0, 0, 1, 0,0) ">
<use xlink:href="#d_40_0_Layer0_0_FILL"/>
</g>
</g>

<g id="d_43" transform="matrix( 1.3591156005859375, 0, 0, 1.16192626953125, 201.8,29.45) ">
<g transform="matrix( 1, 0, 0, 1, -255.6,36.25) ">
<use xlink:href="#d_43_0_Layer0_0_FILL"/>
</g>
</g>

<g id="d_44" transform="matrix( 1.3591156005859375, 0, 0, 1.16192626953125, 206.9,60.7) ">
<g transform="matrix( 1, 0, 0, 1, -259.35,9.35) ">
<use xlink:href="#d_44_0_Layer0_0_FILL"/>
</g>
</g>

<g id="d_45" transform="matrix( 1.3591156005859375, 0, 0, 1.16192626953125, 211.65,87.15) ">
<g transform="matrix( 1, 0, 0, 1, -262.85,-13.35) ">
<use xlink:href="#d_45_0_Layer0_0_FILL"/>
</g>
</g>

<g id="d_46" transform="matrix( 1.3591156005859375, 0, 0, 1.16192626953125, 215.5,112.8) ">
<g transform="matrix( 1, 0, 0, 1, 0,0) ">
<use xlink:href="#d_46_0_Layer0_0_FILL"/>
</g>
</g>

<g id="d_TS" transform="matrix( 1, 0, 0, 1, 45.7,74.2) ">
<g transform="matrix( 1, 0, 0, 1, 0,0) ">
<use xlink:href="#d_TS_0_Layer0_0_FILL"/>
</g>
</g>

<g id="d_b1" transform="matrix( 1, 0, 0, 1, -220,-42.7) ">
<g transform="matrix( 1, 0, 0, 1, 0,0) ">
<use xlink:href="#d_b1_0_Layer0_0_FILL"/>
</g>
</g>

<g id="d_b2" transform="matrix( 1, 0, 0, 1, 349.05,140.55) ">
<g transform="matrix( 1, 0, 0, 1, 0,0) ">
<use xlink:href="#d_b2_0_Layer0_0_FILL"/>
</g>
</g>

<g id="d_b3" transform="matrix( 1, 0, 0, 1, -223.8,-50.25) ">
<g transform="matrix( 1, 0, 0, 1, 0,0) ">
<use xlink:href="#d_b3_0_Layer0_0_FILL"/>
</g>
</g>

<g id="d_L2" transform="matrix( 1.3591156005859375, 0, 0, 1.16192626953125, -16,-48.8) "/>

<g id="d_L1" transform="matrix( 1, 0, 0, 1, -131.45,142.5) "/>

<g id="d_L01" transform="matrix( 1, 0, 0, 1, -16,-48.8) "/>

<g id="d_L02" transform="matrix( 1, 0, 0, 1, -131.2,142.5) "/>
</g>
</g>
</g>

<g filter="url(#Filter_3)" transform="matrix( 1, 0, 0, 1, 0,0) ">
<g id="level1" transform="matrix( 1, 0, -0.1527557373046875, 1, 4.5,0) ">
<g id="map_FL" transform="matrix( 1, 0, 0, 1, 0,0) ">
<g transform="matrix( 1, 0, 0, 1, 0,0) ">
<use xlink:href="#level1_0_Layer2_0_FILL"/>
</g>

<g transform="matrix( 1, 0, 0, 1, 2.7,132.7) ">
<g transform="matrix( 1, 0, 0, 1, 0,0) ">
<use filter="url(#Filter_2)" xlink:href="#Symbol_7_0_Layer0_0_FILL"/>
</g>
</g>

<g id="d_55_58" transform="matrix( 1, 0, 0, 1, 18,58.8) ">
<g transform="matrix( 1, 0, 0, 1, 0,0) ">
<use xlink:href="#d_55_58_0_Layer0_0_FILL"/>
</g>
</g>

<g id="d_59" transform="matrix( 1, 0, 0, 1, -314.2,-77.2) ">
<g transform="matrix( 1, 0, 0, 1, 0,0) ">
<use xlink:href="#d_59_0_Layer0_0_FILL"/>
</g>
</g>

<g id="d_54" transform="matrix( 1, 0, 0, 1, -35.95,99.8) ">
<g transform="matrix( 1, 0, 0, 1, -37.55,-120.5) ">
<use xlink:href="#d_54_0_Layer0_0_FILL"/>
</g>
</g>

<g id="d_53a" transform="matrix( 1, 0, 0, 1, -74.25,92.05) ">
<g transform="matrix( 1, 0, 0, 1, 0,0) ">
<use xlink:href="#d_53a_0_Layer0_0_FILL"/>
</g>
</g>

<g id="d_50a" transform="matrix( 1, 0, 0, 1, -113.7,84.05) ">
<g transform="matrix( 1, 0, 0, 1, 0,0) ">
<use xlink:href="#d_50a_0_Layer0_0_FILL"/>
</g>
</g>

<g transform="matrix( 1, 0, 0, 1, 0,0) ">
<use xlink:href="#level1_0_Layer0_0_1_STROKES"/>
</g>
</g>
</g>
</g>

<g filter="url(#Filter_4)" transform="matrix( 1, 0, 0, 1, 0,0) ">
<g id="level2" transform="matrix( 1, 0, -0.1527557373046875, 1, 4.5,0) ">
<g id="map_FL_FL" transform="matrix( 1, 0, 0, 1, 0,0) ">
<g transform="matrix( 1, 0, 0, 1, 0,0) ">
<use xlink:href="#level2_0_Layer2_0_FILL"/>
</g>

<g transform="matrix( 1, 0, 0, 1, 66.9,-6.4) ">
<g transform="matrix( 1, 0, 0, 1, 0,0) ">
<use filter="url(#Filter_2)" xlink:href="#Symbol_6_0_Layer0_0_FILL"/>
</g>
</g>

<g id="d_60_1" transform="matrix( 1.38787841796875, 0, 0, 1.172698974609375, -90.6,-68) ">
<g transform="matrix( 1, 0, 0, 1, 0,0) ">
<use xlink:href="#d_60_1_0_Layer0_0_FILL"/>
</g>
</g>

<g id="d_62" transform="matrix( 1.38787841796875, 0, 0, 1.172698974609375, 22.5,-86.95) ">
<g transform="matrix( 1, 0, 0, 1, 0,0) ">
<use xlink:href="#d_62_0_Layer0_0_FILL"/>
</g>
</g>

<g id="d_64" transform="matrix( 1.38787841796875, 0, 0, 1.172698974609375, -157.85,148.45) ">
<g transform="matrix( 1, 0, 0, 1, 0,0) ">
<use xlink:href="#d_64_0_Layer0_0_FILL"/>
</g>
</g>

<g id="d_63" transform="matrix( 1.38787841796875, 0, 0, 1.172698974609375, 108.6,-72.2) ">
<g transform="matrix( 1, 0, 0, 1, 0,0) ">
<use xlink:href="#d_63_0_Layer0_0_FILL"/>
</g>
</g>

<g id="d_PR" transform="matrix( 1, 0, 0, 1, -35.85,-73.85) ">
<g transform="matrix( 1, 0, 0, 1, 0,0) ">
<use xlink:href="#d_PR_0_Layer0_0_FILL"/>
</g>
</g>

<g transform="matrix( 1, 0, 0, 1, 0,0) ">
<use xlink:href="#level2_0_Layer0_0_1_STROKES"/>
</g>
</g>
</g>
</g>

<g filter="url(#Filter_5)" transform="matrix( 1, 0, 0, 1, 0,0) ">
<g id="level3" transform="matrix( 1, 0, -0.1527557373046875, 1, 4.5,0) ">
<g id="map_FL_FL_FL" transform="matrix( 1, 0, 0, 1, 0,0) ">
<g transform="matrix( 1, 0, 0, 1, 0,0) ">
<use xlink:href="#level3_0_Layer2_0_FILL"/>
</g>

<g id="d_75a_76a" transform="matrix( 0.8697509765625, 0, 0, 0.8697509765625, 10.55,150.5) ">
<g transform="matrix( 1, 0, 0, 1, 0,0) ">
<use xlink:href="#d_75a_76a_0_Layer0_0_FILL"/>
</g>
</g>

<g id="d_77a" transform="matrix( 0.8697509765625, 0, 0, 0.8697509765625, 85.8,138.8) ">
<g transform="matrix( 1, 0, 0, 1, 0,0) ">
<use xlink:href="#d_77a_0_Layer0_0_FILL"/>
</g>
</g>

<g id="d_P7" transform="matrix( 0.8697509765625, 0, 0, 0.8697509765625, 121.85,79.55) ">
<g transform="matrix( 1, 0, 0, 1, 0,0) ">
<use xlink:href="#d_P7_0_Layer0_0_FILL"/>
</g>
</g>

<g id="d_67" transform="matrix( 0.8697509765625, 0, 0, 0.8697509765625, -31.35,-63.25) ">
<g transform="matrix( 1, 0, 0, 1, 0,0) ">
<use xlink:href="#d_67_0_Layer0_0_FILL"/>
</g>
</g>

<g id="d_69" transform="matrix( 0.8697509765625, 0, 0, 0.8697509765625, 105.8,-64.25) ">
<g transform="matrix( 1, 0, 0, 1, 0,0) ">
<use xlink:href="#d_69_0_Layer0_0_FILL"/>
</g>
</g>

<g id="d_P1" transform="matrix( 0.8697509765625, 0, 0, 0.8697509765625, -5.55,48.3) ">
<g transform="matrix( 1, 0, 0, 1, 0,0) ">
<use xlink:href="#d_P1_0_Layer0_0_FILL"/>
</g>
</g>

<g id="d_P2" transform="matrix( 0.8697509765625, 0, 0, 0.8697509765625, -16.4,81.55) ">
<g transform="matrix( 1, 0, 0, 1, 0,0) ">
<use xlink:href="#d_P2_0_Layer0_0_FILL"/>
</g>
</g>

<g id="d_P4" transform="matrix( 0.8697509765625, 0, 0, 0.8697509765625, 54.3,48.3) ">
<g transform="matrix( 1, 0, 0, 1, 0,0) ">
<use xlink:href="#d_P4_0_Layer0_0_FILL"/>
</g>
</g>

<g id="d_P6" transform="matrix( 0.8697509765625, 0, 0, 0.8697509765625, 137.1,48.3) ">
<g transform="matrix( 1, 0, 0, 1, 0,0) ">
<use xlink:href="#d_P6_0_Layer0_0_FILL"/>
</g>
</g>

<g id="d_66" transform="matrix( 0.8697509765625, 0, 0, 0.8697509765625, -116,-55.4) ">
<g transform="matrix( 1, 0, 0, 1, 0,0) ">
<use xlink:href="#d_66_0_Layer0_0_FILL"/>
</g>
</g>

<g id="d_T5" transform="matrix( 1, 0, 0, 1, 55.4,181.95) ">
<g transform="matrix( 1, 0, 0, 1, 0,0) ">
<use xlink:href="#d_T5_0_Layer0_0_FILL"/>

<use xlink:href="#d_T5_0_Layer0_0_1_STROKES"/>
</g>
</g>

<g id="d_T4" transform="matrix( 1, 0, 0, 1, 52.95,175.45) ">
<g transform="matrix( 1, 0, 0, 1, 0,0) ">
<use xlink:href="#d_T4_0_Layer0_0_FILL"/>

<use xlink:href="#d_T4_0_Layer0_0_1_STROKES"/>
</g>
</g>

<g id="d_T6" transform="matrix( 1, 0, 0, 1, 58,188.5) ">
<g transform="matrix( 0.9659271240234375, -0.2588043212890625, 0.2588043212890625, 0.9659271240234375, -95.9,-157.45) ">
<use xlink:href="#d_T6_0_Layer0_0_FILL"/>

<use xlink:href="#d_T6_0_Layer0_0_1_STROKES" transform="matrix( 0.9659271240234375, 0.2588043212890625, -0.2588043212890625, 0.9659271240234375, 51.85,176.9) "/>
</g>
</g>

<g id="d_68" transform="matrix( 1, 0, 0, 1, 33.65,-68.9) ">
<g transform="matrix( 1, 0, 0, 1, 0,0) ">
<use xlink:href="#d_68_0_Layer0_0_FILL"/>
</g>
</g>

<g transform="matrix( 1, 0, 0, 1, 0,0) ">
<use xlink:href="#level3_0_Layer0_0_1_STROKES"/>

<use xlink:href="#level3_0_Layer0_0_2_STROKES"/>
</g>

<g id="d_atm" transform="matrix( 1, 0, 0, 1, -65.75,105.25) ">
<g transform="matrix( 1, 0, 0, 1, 0,0) ">
<use xlink:href="#d_atm_0_Layer0_0_FILL"/>

<use xlink:href="#d_atm_0_Layer0_0_1_STROKES"/>
</g>
</g>
</g>
</g>
</g>
</svg>
